<svg width="141" height="120" viewBox="0 0 141 120" fill="none" xmlns="http://www.w3.org/2000/svg">
<path d="M140.66 26.0381V114.34C140.66 117.466 138.126 120 135 120H5.66038C2.53415 120 0 117.466 0 114.34V26.0381H140.66Z" fill="#FAF8F8"/>
<path d="M140.66 31.698V26.0376L62.5441 22.4155L0 26.0376V31.698V114.34C0 117.466 2.53415 120 5.66038 120H9.90566C7.56226 120 5.66038 118.098 5.66038 115.755V33.3961C5.66038 32.4582 6.42057 31.698 7.35849 31.698H140.66Z" fill="#F0E9E6"/>
<path d="M140.66 5.66038V26.1792H0V5.66038C0 2.53415 2.53415 0 5.66038 0H135C138.126 0 140.66 2.53415 140.66 5.66038Z" fill="#5D748A"/>
<path d="M64.4617 20.378C62.1254 20.378 60.2314 18.4773 60.2314 16.1327C60.2314 13.7882 62.1254 11.8875 64.4617 11.8875H123.419C125.755 11.8875 127.649 13.7882 127.649 16.1327C127.649 18.4773 125.755 20.378 123.419 20.378H64.4617Z" fill="#3F597D"/>
<path d="M45.5291 20.378C47.8654 20.378 49.7594 18.4773 49.7594 16.1327C49.7594 13.7881 47.8654 11.8875 45.5291 11.8875C43.1928 11.8875 41.2988 13.7881 41.2988 16.1327C41.2988 18.4773 43.1928 20.378 45.5291 20.378Z" fill="#3F597D"/>
<path d="M48.4979 19.1556L52.1414 15.5134L48.4229 15.8471L48.4979 19.1556Z" fill="#3F597D"/>
<path d="M42.6221 13.0498L46.1774 9.50757L45.4152 12.4532L42.6221 13.0498Z" fill="#3F597D"/>
<path d="M27.7474 20.378C30.0837 20.378 31.9777 18.4773 31.9777 16.1327C31.9777 13.7881 30.0837 11.8875 27.7474 11.8875C25.4111 11.8875 23.5171 13.7881 23.5171 16.1327C23.5171 18.4773 25.4111 20.378 27.7474 20.378Z" fill="#3F597D"/>
<path d="M30.7242 19.149L34.2286 15.6116L30.6416 15.8482L30.7242 19.149Z" fill="#3F597D"/>
<path d="M24.8374 13.0493L28.3386 9.52319L27.6305 12.4527L24.8374 13.0493Z" fill="#3F597D"/>
<path d="M9.32501 20.378C11.6613 20.378 13.5553 18.4773 13.5553 16.1327C13.5553 13.7881 11.6613 11.8875 9.32501 11.8875C6.98869 11.8875 5.09473 13.7881 5.09473 16.1327C5.09473 18.4773 6.98869 20.378 9.32501 20.378Z" fill="#3F597D"/>
<path d="M12.3888 19.061L15.9891 15.3291L12.2705 15.7199L12.3888 19.061Z" fill="#3F597D"/>
<path d="M6.41846 13.0491L9.7077 9.64209L9.21157 12.4525L6.41846 13.0491Z" fill="#3F597D"/>
<path d="M49.2029 16.6988C51.5393 16.6988 53.4332 14.7981 53.4332 12.4535C53.4332 10.1089 51.5393 8.20825 49.2029 8.20825C46.8666 8.20825 44.9727 10.1089 44.9727 12.4535C44.9727 14.7981 46.8666 16.6988 49.2029 16.6988Z" fill="#B7E546"/>
<path d="M61.5615 13.0414L65.2326 9.36475L64.3764 13.4051L61.5615 13.0414Z" fill="#3F597D"/>
<path d="M126.462 19.0798L130.184 15.3499L127.301 16.3067L126.462 19.0798Z" fill="#3F597D"/>
<path d="M31.4007 16.6988C33.737 16.6988 35.631 14.7981 35.631 12.4535C35.631 10.1089 33.737 8.20825 31.4007 8.20825C29.0644 8.20825 27.1704 10.1089 27.1704 12.4535C27.1704 14.7981 29.0644 16.6988 31.4007 16.6988Z" fill="#FFBF54"/>
<path d="M12.8748 16.6988C15.2111 16.6988 17.1051 14.7981 17.1051 12.4535C17.1051 10.1089 15.2111 8.20825 12.8748 8.20825C10.5385 8.20825 8.64453 10.1089 8.64453 12.4535C8.64453 14.7981 10.5385 16.6988 12.8748 16.6988Z" fill="#DC4955"/>
<path d="M68.1321 16.6988C65.7958 16.6988 63.9019 14.7981 63.9019 12.4535C63.9019 10.109 65.7958 8.20825 68.1321 8.20825H127.089C129.426 8.20825 131.319 10.109 131.319 12.4535C131.319 14.7981 129.426 16.6988 127.089 16.6988H68.1321Z" fill="#FAF8F8"/>
<path d="M38.4586 50.5189L102.599 51.085C104.162 51.085 105.429 49.8179 105.429 48.2548L106.413 46.2736V37.7831C106.413 36.22 105.146 34.9529 103.583 34.9529H40.187L38.4586 36.368C36.8955 36.368 35.6284 37.6351 35.6284 39.1982V47.6887C35.6284 49.2518 36.8955 50.5189 38.4586 50.5189Z" fill="#AAD8DE"/>
<path d="M106.416 46.2736V49.1038C106.416 50.6669 105.149 51.934 103.585 51.934H37.359C35.7959 51.934 34.5288 50.6669 34.5288 49.1038V37.7831C34.5288 36.22 35.7959 34.9529 37.359 34.9529H40.1892V44.2925C40.1892 45.3867 41.0762 46.2736 42.1703 46.2736H106.416Z" fill="#94CCD4"/>
</svg>
