<svg width="84" height="76" viewBox="0 0 84 76" fill="none" xmlns="http://www.w3.org/2000/svg">
<path d="M29.5601 28.9051C29.5601 25.574 26.8347 22.8486 23.5036 22.8486H18.6027V18.6805H18.6556L21.1911 15.8882C22.1429 14.84 22.6702 13.4746 22.6702 12.0589V6.17365C22.6702 2.76404 19.9061 0 16.4965 0H13.0637C9.65409 0 6.89005 2.76404 6.89005 6.17365V12.059C6.89005 13.4751 7.41731 14.8401 8.36915 15.8883L10.9044 18.6805H10.9574V22.8484H6.05649C2.72537 22.8486 0 25.574 0 28.9051V37.2339H28.3497L29.5601 28.9051Z" fill="#7A609E"/>
<path d="M53.633 28.9051C53.633 25.574 56.3584 22.8486 59.6895 22.8486H64.5904V18.6805H64.5374L62.002 15.8882C61.0501 14.84 60.5229 13.4746 60.5229 12.0589V6.17365C60.5229 2.76405 63.2869 0 66.6965 0H70.1294C73.539 0 76.303 2.76405 76.303 6.17365V12.059C76.303 13.4751 75.7757 14.8401 74.8239 15.8883L72.2886 18.6805H72.2357V22.8484H77.1366C80.4677 22.8484 83.1931 25.5738 83.1931 28.9049V37.2338H56.5382L53.633 28.9051Z" fill="#7A609E"/>
<path d="M39.6306 2.80229C35.7904 2.80229 32.6772 5.91535 32.6772 9.7557V16.3841C32.6772 17.9789 33.2711 19.5164 34.3432 20.697L37.1987 23.8419H37.2583V28.5361H31.7387C27.9871 28.5361 24.9175 31.6056 24.9175 35.3573V44.7377H58.2104V35.3573C58.2104 31.6056 55.1409 28.5361 51.3892 28.5361H45.8696V23.8419H45.9292L48.7847 20.697C49.8567 19.5164 50.4507 17.9788 50.4507 16.3841V9.75554C50.4507 5.91519 47.3377 2.80212 43.4973 2.80212C43.4973 2.80229 39.6306 2.80229 39.6306 2.80229Z" fill="#52D6C6"/>
<path d="M42.0821 54.5887L45.6559 61.5059L53.3388 62.7671L47.8644 68.3034L49.0391 76L42.0821 72.5044L35.1253 76L36.3001 68.3034L30.8256 62.7671L38.5088 61.5059L42.0821 54.5887Z" fill="#FDC00F"/>
<path d="M70.3083 45.1078L73.8818 52.0248L81.5648 53.2862L76.0905 58.8222L77.2653 66.5189L70.3083 63.0233L63.3515 66.5189L64.5262 58.8222L59.0518 53.2862L66.7347 52.0248L70.3083 45.1078Z" fill="#FDC00F"/>
<path d="M13.8561 45.1078L17.4298 52.0248L25.1128 53.2862L19.6384 58.8222L20.8131 66.5189L13.8561 63.0233L6.89914 66.5189L8.07392 58.8222L2.59961 53.2862L10.2827 52.0248L13.8561 45.1078Z" fill="#FDC00F"/>
</svg>
