<svg width="67" height="76" viewBox="0 0 67 76" fill="none" xmlns="http://www.w3.org/2000/svg">
<path d="M54.2313 71.4171C54.2313 73.948 52.1793 76.0001 49.6483 76.0001H4.58301C2.05203 76.0001 0 73.948 0 71.4171V13.2139C0 10.6829 2.05203 8.63147 4.58301 8.63147H49.6483C52.1793 8.63147 54.2313 10.6829 54.2313 13.2139V71.4171Z" fill="#AA8452"/>
<path d="M54.2312 13.2139V71.4171C54.2312 73.9486 52.1797 76.0001 49.6482 76.0001H45.0652C47.5967 76.0001 49.6482 73.9486 49.6482 71.4171V13.2139C49.6482 10.6829 47.5967 8.63147 45.0652 8.63147H49.6482C52.1792 8.63147 54.2312 10.6829 54.2312 13.2139Z" fill="#7F5C3E"/>
<path d="M49.6484 13.8249C49.6484 13.4034 49.3063 13.0613 48.8842 13.0613H5.19427C4.77216 13.0613 4.43005 13.4034 4.43005 13.8249V70.6533C4.43005 71.0748 4.77216 71.4169 5.19427 71.4169H48.8848C49.3063 71.4169 49.6484 71.0748 49.6484 70.6533V13.8249Z" fill="white"/>
<path d="M33.5888 7.79065V2.2915C33.5888 1.02573 32.5625 0 31.2973 0H22.8949C21.6297 0 20.604 1.02573 20.604 2.2915V7.79065H33.5888Z" fill="#CCCCCC"/>
<path d="M33.589 2.2915V7.79065H29.006V2.2915C29.006 1.02631 27.9808 0 26.7145 0H31.2975C32.5638 0 33.589 1.02631 33.589 2.2915Z" fill="#A0A0A0"/>
<path d="M15.5618 6.26343C14.7182 6.26343 14.0345 6.94763 14.0345 7.79071V15.2764C14.0345 16.12 14.7182 16.8036 15.5618 16.8036H38.6294C39.473 16.8036 40.1566 16.12 40.1566 15.2764V7.79071C40.1566 6.94705 39.473 6.26343 38.6294 6.26343H15.5618Z" fill="#E8E8E8"/>
<path d="M65.815 20.9686L63.567 19.6709C62.837 19.2493 61.9029 19.4993 61.4814 20.2298L59.5731 23.5355L61.1613 26.3604H64.4652L66.374 23.0542C66.7955 22.3242 66.5456 21.3901 65.815 20.9686Z" fill="#DB8733"/>
<path d="M58.7792 23.0774L65.2589 26.8185C65.9889 27.24 66.2388 28.1735 65.8173 28.9041L64.2906 31.5482L58.0046 30.8547L55.1669 26.281L56.6936 23.6363C57.1157 22.9057 58.0492 22.6558 58.7792 23.0774Z" fill="#EDAF54"/>
<path d="M49.0995 57.8617H43.4218L39.9758 52.5945L55.1675 26.281L64.2912 31.5482L49.0995 57.8617Z" fill="#FFD47D"/>
<path d="M45.9322 62.2354L39.3453 65.2899C38.8606 65.5149 38.301 65.1844 38.2627 64.6516L37.7519 57.4947C37.7084 56.8864 37.8482 56.2787 38.1532 55.7505L39.9756 52.5945L49.0993 57.8617L47.2919 60.9916C46.9777 61.5367 46.5028 61.9704 45.9322 62.2354Z" fill="#EDAF54"/>
<path d="M11.4291 63.8293C11.1589 63.8293 10.887 63.7336 10.669 63.5399C10.1958 63.1196 10.1529 62.3954 10.5733 61.9228L13.1385 59.0341C13.5073 58.6189 14.0372 58.3846 14.5933 58.3928C15.1488 58.4009 15.6724 58.6496 16.0295 59.0752L17.7934 61.1789L19.9005 58.8914C20.2618 58.4989 20.7726 58.2756 21.3049 58.2756H21.3252C21.8644 58.2814 22.3787 58.5163 22.7359 58.921L25.3602 61.8915C25.7795 62.3658 25.7348 63.0894 25.2605 63.5086C24.7862 63.9273 24.062 63.8826 23.6433 63.4083L21.2991 60.755L19.1838 63.0511C18.8122 63.4553 18.2845 63.6774 17.7354 63.6664C17.1863 63.6536 16.6691 63.4048 16.3166 62.9845L14.5579 60.8866L12.2861 63.4443C12.06 63.6994 11.7457 63.8293 11.4291 63.8293Z" fill="#444444"/>
<path d="M43.327 26.0461H10.7885C10.1559 26.0461 9.6427 25.5336 9.6427 24.9004C9.6427 24.2678 10.1559 23.7546 10.7885 23.7546H43.327C43.9602 23.7546 44.4727 24.2672 44.4727 24.9004C44.4727 25.5336 43.9602 26.0461 43.327 26.0461Z" fill="#444444"/>
<path d="M24.5378 32.1571H10.9419C10.3087 32.1571 9.79553 31.6439 9.79553 31.0107C9.79553 30.3781 10.3087 29.865 10.9419 29.865H24.5378C25.1704 29.865 25.6836 30.3781 25.6836 31.0107C25.6836 31.6439 25.1704 32.1571 24.5378 32.1571Z" fill="#444444"/>
<path d="M35.231 32.1571H29.8844C29.2518 32.1571 28.7386 31.6439 28.7386 31.0107C28.7386 30.3781 29.2518 29.865 29.8844 29.865H35.231C35.8636 29.865 36.3768 30.3781 36.3768 31.0107C36.3768 31.6439 35.8636 32.1571 35.231 32.1571Z" fill="#444444"/>
<path d="M21.9402 38.2673H10.9413C10.3081 38.2673 9.79553 37.7548 9.79553 37.1216C9.79553 36.4884 10.3081 35.9758 10.9413 35.9758H21.9402C22.5728 35.9758 23.0859 36.4884 23.0859 37.1216C23.0859 37.7548 22.5728 38.2673 21.9402 38.2673Z" fill="#444444"/>
<path d="M32.0228 38.2673H26.8292C26.196 38.2673 25.6835 37.7548 25.6835 37.1216C25.6835 36.4884 26.196 35.9758 26.8292 35.9758H32.0228C32.656 35.9758 33.1685 36.4884 33.1685 37.1216C33.1685 37.7548 32.6554 38.2673 32.0228 38.2673Z" fill="#444444"/>
<path d="M18.8856 44.3781H10.9419C10.3087 44.3781 9.79553 43.865 9.79553 43.2318C9.79553 42.5992 10.3087 42.0861 10.9419 42.0861H18.8856C19.5182 42.0861 20.0313 42.5992 20.0313 43.2318C20.0313 43.865 19.5182 44.3781 18.8856 44.3781Z" fill="#444444"/>
<path d="M32.0225 44.3781H23.7732C23.1406 44.3781 22.6274 43.865 22.6274 43.2318C22.6274 42.5992 23.1406 42.0861 23.7732 42.0861H32.0225C32.6557 42.0861 33.1682 42.5992 33.1682 43.2318C33.1682 43.865 32.6551 44.3781 32.0225 44.3781Z" fill="#444444"/>
<path d="M18.8856 50.4885H10.9419C10.3087 50.4885 9.79553 49.976 9.79553 49.3428C9.79553 48.7102 10.3087 48.197 10.9419 48.197H18.8856C19.5182 48.197 20.0313 48.7096 20.0313 49.3428C20.0313 49.9754 19.5182 50.4885 18.8856 50.4885Z" fill="#444444"/>
<path d="M40.1579 7.79071V15.2764C40.1579 16.1194 39.4731 16.8036 38.63 16.8036H34.047C34.8907 16.8036 35.5749 16.1194 35.5749 15.2764V7.79071C35.5749 6.94763 34.8907 6.26343 34.047 6.26343H38.63C39.4731 6.26343 40.1579 6.94763 40.1579 7.79071Z" fill="#CCCCCC"/>
<path d="M65.8182 28.9036L64.2915 31.5476L60.3225 29.2567L61.8492 26.6121C62.2708 25.8815 62.0208 24.9485 61.2908 24.527L65.2598 26.8185C65.9898 27.24 66.2397 28.173 65.8182 28.9036Z" fill="#DB8733"/>
<path d="M45.1293 55.5713L60.3215 29.2584L64.2905 31.5499L49.0977 57.8628L45.1293 55.5713Z" fill="#E89E46"/>
<path d="M49.0991 57.8616L47.2917 60.9921C46.9774 61.5354 46.5026 61.9703 45.9314 62.2353L39.3457 65.2892C38.8615 65.5142 38.3002 65.1849 38.262 64.6514L38.0555 61.7557L41.9625 59.9438C42.5336 59.6788 43.0085 59.2439 43.3228 58.7006L45.1295 55.5701L49.0991 57.8616Z" fill="#DB8733"/>
</svg>
