<svg width="50" height="76" viewBox="0 0 50 76" fill="none" xmlns="http://www.w3.org/2000/svg">
<path d="M44.6268 28.8359L46.4261 27.2182C52.6856 0.112488 33.5019 2.97273 33.5019 2.97273C33.5019 2.97273 27.7126 -2.14465 17.2991 1.04898C7.13276 4.16676 6.27168 11.1173 0.388801 14.623C-0.0790739 14.9018 -0.13741 15.555 0.283262 15.9008C1.17626 16.6346 2.84945 17.6149 5.42113 17.6231C5.25904 20.4345 5.53023 23.6142 6.30612 27.1836L8.09909 28.836H44.6268V28.8359Z" fill="#2D4456"/>
<path d="M11.1225 23.2451C8.74287 23.2451 6.75885 24.937 6.30701 27.1835C6.42487 27.7256 6.55356 28.276 6.69488 28.836H11.6304V23.2712C11.4633 23.2539 11.2939 23.2451 11.1225 23.2451Z" fill="#253847"/>
<path d="M46.0313 28.8359C46.1729 28.2846 46.3033 27.7464 46.4254 27.2179C45.9869 24.9544 43.9953 23.245 41.6037 23.245C41.4321 23.245 41.2627 23.2539 41.0957 23.271V28.8357H46.0313V28.8359Z" fill="#253847"/>
<path d="M11.6305 31.9847V26.0802C11.4635 26.0631 11.294 26.0542 11.1225 26.0542C8.89761 26.0542 7.01824 27.5332 6.41395 29.5618C6.2814 30.0069 8.40955 34.4746 11.1225 34.4746L11.6678 33.0391C11.643 32.6908 11.6305 32.3393 11.6305 31.9847Z" fill="#FFC4AD"/>
<path d="M11.1225 33.0699C8.89755 33.0699 7.01922 31.5904 6.41493 29.562C6.28222 30.0072 6.21008 30.4783 6.21008 30.9665C6.21008 33.6795 8.40948 35.8789 11.1225 35.8789C11.4657 35.8789 11.8005 35.8434 12.124 35.7765L13.238 34.429L11.6687 33.0389C11.4893 33.0589 11.3071 33.0699 11.1225 33.0699Z" fill="#FFB69F"/>
<path d="M48.4963 74.5954H4.22971L2.8252 73.1909V63.465C2.8252 53.4398 10.9522 45.3129 20.9773 45.3129H31.7487C41.7739 45.3129 49.9008 53.4398 49.9008 63.465V73.1909L48.4963 74.5954Z" fill="#86DCFF"/>
<path d="M3.60553 76H10.9536L12.1241 74.5954L13.2945 76H39.4317L40.6021 74.5954L41.7725 76H49.1206C49.5516 76 49.901 75.6507 49.901 75.2196V73.1909H2.8252V75.2196C2.8252 75.6507 3.17447 76 3.60553 76Z" fill="#56CAED"/>
<path d="M23.6317 51.9924L26.3625 50.5879L29.0933 51.9924L31.1769 63.4123L30.6069 65.3926L26.363 69.6802L22.1503 65.425L21.5481 63.4122L23.6317 51.9924Z" fill="#FF5876"/>
<path d="M25.8086 67.7156L21.5483 63.4122L21.1885 65.3841C21.1427 65.6348 21.2223 65.892 21.4016 66.0731L25.8086 70.5246C26.1139 70.8331 26.6124 70.8331 26.9177 70.5246L31.3238 66.0733C31.5031 65.8922 31.5825 65.6349 31.5368 65.3842L31.177 63.4124L26.9176 67.7156C26.6122 68.024 26.1139 68.024 25.8086 67.7156Z" fill="#E6485D"/>
<path d="M29.0934 51.9924H23.6318L21.0378 45.3129H31.6875L29.0934 51.9924Z" fill="#E6485D"/>
<path d="M41.0957 31.9847V26.0802C41.2627 26.0631 41.4322 26.0542 41.6037 26.0542C43.8286 26.0542 45.708 27.5332 46.3123 29.5618C46.4448 30.0069 44.3167 34.4746 41.6037 34.4746L41.0585 33.0391C41.0833 32.6908 41.0957 32.3393 41.0957 31.9847Z" fill="#FFC4AD"/>
<path d="M41.6037 33.0699C43.8286 33.0699 45.707 31.5904 46.3113 29.562C46.4438 30.0072 46.5161 30.4783 46.5161 30.9665C46.5161 33.6795 44.3167 35.8789 41.6036 35.8789C41.2604 35.8789 40.9255 35.8434 40.6021 35.7765L39.488 34.429L41.0573 33.0389C41.2369 33.0589 41.4191 33.0699 41.6037 33.0699Z" fill="#FFB69F"/>
<path d="M31.2594 11.9395C25.6918 18.1675 15.0585 20.0567 12.2983 20.4523C11.9143 20.5074 11.6305 20.8364 11.6305 21.2243V28.8359V30.5802C11.6305 38.7168 18.2265 45.3128 26.3631 45.3128C34.4997 45.3128 41.0956 38.7168 41.0956 30.5802V29.1757V21.3252C41.0956 21.0155 40.9135 20.7351 40.6297 20.6113C39.2451 20.007 35.094 17.7956 32.5459 12.1456C32.3159 11.6352 31.6326 11.5221 31.2594 11.9395Z" fill="#FFE0CC"/>
<path d="M26.3632 43.9084C18.2266 43.9084 11.6305 37.3124 11.6305 29.1758V31.9848C11.6305 40.1214 18.2266 46.7174 26.3631 46.7174C34.4997 46.7174 41.0956 40.1214 41.0956 31.9848V29.1758C41.0958 37.3124 34.4998 43.9084 26.3632 43.9084Z" fill="#FFCEB3"/>
<path d="M23.64 30.2742C24.284 26.9841 22.1388 23.795 18.8488 23.1511C15.5587 22.5071 12.3696 24.6523 11.7256 27.9423C11.0817 31.2324 13.2268 34.4215 16.5169 35.0655C19.807 35.7094 22.9961 33.5643 23.64 30.2742Z" fill="#E4EEF9"/>
<path d="M35.6573 35.1166C38.9909 34.7611 41.4052 31.7704 41.0497 28.4367C40.6942 25.1031 37.7036 22.6888 34.3699 23.0443C31.0362 23.3998 28.6219 26.3905 28.9774 29.7241C29.3329 33.0578 32.3236 35.4721 35.6573 35.1166Z" fill="#E4EEF9"/>
<path d="M13.2944 73.191V65.7091C13.2944 65.0627 12.7704 64.5387 12.1239 64.5387C11.4775 64.5387 10.9535 65.0627 10.9535 65.7091V73.191L12.1239 74.5955L13.2944 73.191Z" fill="#41ADF7"/>
<path d="M10.9535 73.1909H13.2944V76H10.9535V73.1909Z" fill="#1BA0EA"/>
<path d="M41.7726 73.191V65.7091C41.7726 65.0627 41.2486 64.5387 40.6022 64.5387C39.9557 64.5387 39.4318 65.0627 39.4318 65.7091V73.191L40.6022 74.5955L41.7726 73.191Z" fill="#41ADF7"/>
<path d="M39.4318 73.1909H41.7726V76H39.4318V73.1909Z" fill="#1BA0EA"/>
<path d="M30.0414 35.5283C29.4423 35.2818 28.7571 35.5673 28.5106 36.1661C28.5065 36.1759 28.0559 37.1556 26.3653 37.1556C24.6748 37.1556 24.2241 36.1759 24.2201 36.1661C23.9736 35.5673 23.2884 35.2818 22.6893 35.5283C22.0905 35.7749 21.8049 36.4602 22.0513 37.059C22.4248 37.966 23.7536 39.5009 26.3652 39.5009C28.9768 39.5009 30.3056 37.966 30.6791 37.059C30.9258 36.4602 30.6403 35.7749 30.0414 35.5283Z" fill="#FF5876"/>
<path d="M19.2129 31.9212C19.8606 31.9212 20.3856 31.3961 20.3856 30.7485V27.4394C20.3856 26.7917 19.8607 26.2667 19.2129 26.2667C18.5653 26.2667 18.0403 26.7917 18.0403 27.4394V30.7485C18.0404 31.3961 18.5653 31.9212 19.2129 31.9212Z" fill="#2D4456"/>
<path d="M33.5176 26.2668C32.87 26.2668 32.345 26.7919 32.345 27.4395V30.7486C32.345 31.3963 32.8698 31.9213 33.5176 31.9213C34.1653 31.9213 34.6903 31.3963 34.6903 30.7486V27.4395C34.6901 26.7919 34.1653 26.2668 33.5176 26.2668Z" fill="#2D4456"/>
<path d="M35.0231 21.8652C31.4278 21.8652 28.4374 24.4988 27.8761 27.938H24.8502C24.289 24.4988 21.2984 21.8652 17.7032 21.8652C13.7094 21.8652 10.4601 25.1145 10.4601 29.1084C10.4601 33.1023 13.7094 36.3514 17.7032 36.3514C21.2985 36.3514 24.289 33.7178 24.8502 30.2788H27.8761C28.4375 33.7178 31.4279 36.3514 35.0231 36.3514C39.0168 36.3514 42.2662 33.1021 42.2662 29.1084C42.2662 25.1145 39.0169 21.8652 35.0231 21.8652ZM17.7032 34.0105C15.0002 34.0105 12.8009 31.8114 12.8009 29.1084C12.8009 26.4053 15 24.2061 17.7032 24.2061C20.4061 24.2061 22.6054 26.4052 22.6054 29.1084C22.6052 31.8114 20.4061 34.0105 17.7032 34.0105ZM35.0231 34.0105C32.3202 34.0105 30.1209 31.8114 30.1209 29.1084C30.1209 26.4053 32.32 24.2061 35.0231 24.2061C37.7263 24.2061 39.9254 26.4052 39.9254 29.1084C39.9254 31.8114 37.7263 34.0105 35.0231 34.0105Z" fill="#2D4456"/>
</svg>
