<svg width="24" height="16" viewBox="0 0 24 16" fill="none" xmlns="http://www.w3.org/2000/svg">
<path d="M1.28571 0C0.575634 0 0 0.511675 0 1.14286C0 1.77404 0.575634 2.28571 1.28571 2.28571H21.8571C22.5672 2.28571 23.1429 1.77404 23.1429 1.14286C23.1429 0.511675 22.5672 0 21.8571 0H1.28571Z" fill="#4C3B3F"/>
<path d="M1.28571 4.57143C0.575634 4.57143 0 5.0831 0 5.71429C0 6.34547 0.575634 6.85714 1.28571 6.85714H21.8571C22.5672 6.85714 23.1429 6.34547 23.1429 5.71429C23.1429 5.0831 22.5672 4.57143 21.8571 4.57143H1.28571Z" fill="#4C3B3F"/>
<path d="M0 10.2857C0 9.65453 0.575634 9.14286 1.28571 9.14286H21.8571C22.5672 9.14286 23.1429 9.65453 23.1429 10.2857C23.1429 10.9169 22.5672 11.4286 21.8571 11.4286H1.28571C0.575634 11.4286 0 10.9169 0 10.2857Z" fill="#4C3B3F"/>
<path d="M1.28571 13.7143C0.575634 13.7143 0 14.226 0 14.8571C0 15.4883 0.575634 16 1.28571 16H21.8571C22.5672 16 23.1429 15.4883 23.1429 14.8571C23.1429 14.226 22.5672 13.7143 21.8571 13.7143H1.28571Z" fill="#4C3B3F"/>
</svg>
