<svg width="15" height="17" viewBox="0 0 15 17" fill="none" xmlns="http://www.w3.org/2000/svg">
<path fill-rule="evenodd" clip-rule="evenodd" d="M11.0601 7.25581C11.0601 8.98456 9.56772 10.386 7.72677 10.386C5.88583 10.386 4.39345 8.98456 4.39345 7.25581C4.39345 5.52707 5.88583 4.12565 7.72677 4.12565C9.56772 4.12565 11.0601 5.52707 11.0601 7.25581ZM9.39344 7.25581C9.39344 8.12018 8.64725 8.8209 7.72677 8.8209C6.8063 8.8209 6.06011 8.12018 6.06011 7.25581C6.06011 6.39144 6.8063 5.69073 7.72677 5.69073C8.64725 5.69073 9.39344 6.39144 9.39344 7.25581Z" fill="#4C3B3F"/>
<path fill-rule="evenodd" clip-rule="evenodd" d="M2.32847 12.1437C-0.671463 9.46159 -0.788013 5.00364 2.06815 2.18655C4.9243 -0.630538 9.6716 -0.739984 12.6715 1.94209C15.6715 4.62417 15.788 9.08213 12.9319 11.8992L7.76032 17L2.32847 12.1437ZM11.7248 10.82L7.70247 14.7873L3.4777 11.0102C1.14442 8.9241 1.05377 5.4568 3.27522 3.26573C5.49668 1.07467 9.18902 0.989542 11.5223 3.0756C13.8556 5.16166 13.9462 8.62896 11.7248 10.82Z" fill="#4C3B3F"/>
</svg>
