<svg width="30" height="28" viewBox="0 0 30 28" fill="none" xmlns="http://www.w3.org/2000/svg">
<g clip-path="url(#clip0)">
<path d="M14.9232 14.8879C14.9526 14.8879 14.9819 14.8879 15.0171 14.8879C15.0289 14.8879 15.0406 14.8879 15.0523 14.8879C15.07 14.8879 15.0934 14.8879 15.111 14.8879C16.8309 14.8593 18.2221 14.2699 19.2494 13.1427C21.5093 10.6595 21.1336 6.40258 21.0926 5.99634C20.9458 2.94668 19.4666 1.48764 18.2456 0.80676C17.3358 0.297529 16.2733 0.0228868 15.0876 0H15.0465C15.0406 0 15.0289 0 15.023 0H14.9878C14.3362 0 13.0566 0.102991 11.8297 0.783873C10.597 1.46476 9.09432 2.92379 8.94757 5.99634C8.90648 6.40258 8.53081 10.6595 10.7907 13.1427C11.8121 14.2699 13.2033 14.8593 14.9232 14.8879ZM10.5149 6.13939C10.5149 6.12222 10.5207 6.10506 10.5207 6.09361C10.7144 1.99115 13.7023 1.55058 14.9819 1.55058H15.0054C15.0171 1.55058 15.0347 1.55058 15.0523 1.55058C16.6372 1.58491 19.3316 2.2143 19.5135 6.09361C19.5135 6.11078 19.5135 6.12794 19.5194 6.13939C19.5253 6.17944 19.9362 10.0702 18.0695 12.1186C17.3299 12.931 16.3437 13.3316 15.0465 13.343C15.0347 13.343 15.0289 13.343 15.0171 13.343C15.0054 13.343 14.9995 13.343 14.9878 13.343C13.6964 13.3316 12.7044 12.931 11.9706 12.1186C10.1098 10.0816 10.509 6.17372 10.5149 6.13939Z" fill="#01B5E8"/>
<path d="M27.0799 21.9483C27.0799 21.9426 27.0799 21.9368 27.0799 21.9311C27.0799 21.8853 27.074 21.8396 27.074 21.7881C27.0388 20.6552 26.9625 18.006 24.4149 17.1592C24.3973 17.1535 24.3739 17.1478 24.3563 17.1421C21.7089 16.4841 19.5077 14.9964 19.4842 14.9792C19.1261 14.7332 18.633 14.819 18.3806 15.1681C18.1282 15.5171 18.2163 15.9977 18.5743 16.2437C18.6741 16.3124 21.0104 17.8973 23.9336 18.6297C25.3013 19.1046 25.4539 20.5293 25.495 21.8339C25.495 21.8853 25.495 21.9311 25.5009 21.9769C25.5068 22.4919 25.4715 23.2872 25.3776 23.7449C24.4267 24.2713 20.6993 26.0908 15.0289 26.0908C9.38195 26.0908 5.63103 24.2656 4.67423 23.7392C4.58031 23.2814 4.53922 22.4861 4.55096 21.9712C4.55096 21.9254 4.55683 21.8796 4.55683 21.8281C4.59792 20.5236 4.75054 19.0989 6.11824 18.624C9.04149 17.8916 11.3777 16.301 11.4775 16.238C11.8356 15.992 11.9236 15.5114 11.6712 15.1623C11.4188 14.8133 10.9257 14.7275 10.5677 14.9735C10.5442 14.9907 8.3547 16.4783 5.6956 17.1363C5.67212 17.1421 5.65451 17.1478 5.6369 17.1535C3.08933 18.006 3.01302 20.6552 2.9778 21.7824C2.9778 21.8339 2.9778 21.8796 2.97193 21.9254C2.97193 21.9311 2.97193 21.9368 2.97193 21.9426C2.96606 22.2401 2.96019 23.7678 3.2713 24.5345C3.33 24.6833 3.43566 24.8091 3.57654 24.895C3.75264 25.0094 7.97315 27.6299 15.0347 27.6299C22.0963 27.6299 26.3168 25.0037 26.4929 24.895C26.6279 24.8091 26.7395 24.6833 26.7982 24.5345C27.0917 23.7735 27.0858 22.2458 27.0799 21.9483Z" fill="#01B5E8"/>
</g>
<defs>
<clipPath id="clip0">
<rect width="28.3461" height="27.6301" fill="white" transform="translate(0.852905)"/>
</clipPath>
</defs>
</svg>
