<svg width="24" height="24" viewBox="0 0 24 24" fill="none" xmlns="http://www.w3.org/2000/svg">
<path d="M16.9219 19.538V16.9219H15.1037L13.6975 15.5156H11.7088L9.89062 17.3338V19.3225L11.8101 21.242L16.9219 19.538ZM11.2969 17.9162L12.2912 16.9219H13.115L14.5213 18.3281H15.5156V18.5244L12.1899 19.633L11.2969 18.74V17.9162Z" fill="#444444"/>
<path d="M12 24C18.6075 24 24 18.6071 24 12C24 5.3925 18.6071 0 12 0C5.39255 0 0 5.39292 0 12C0 18.6075 5.39297 24 12 24ZM22.3825 9.89062C22.5209 10.5725 22.5938 11.2779 22.5938 12C22.5938 12.7221 22.5209 13.4275 22.3825 14.1094H20.6035L18.3281 12.9717V12.2912L19.4461 11.1733L22.0542 9.89062H22.3825ZM1.40625 12C1.40625 7.04883 4.82072 2.88061 9.41841 1.72495L9.98845 4.04597L12.7031 5.40333V7.07812H14.3779L15.3632 9.04866L14.6737 9.73819L11.6856 8.24414L10.1592 11.2969H7.07812V13.6975L8.19314 14.8125L7.64241 15.3632L4.82991 13.957L3.27127 15.5156H2.00667C1.61831 14.415 1.40625 13.2319 1.40625 12ZM3.85373 16.9219L5.10759 15.668L7.92009 17.0743L10.1819 14.8125L8.48438 13.115V12.7031H11.0283L12.3145 10.1309L14.9514 11.4493L17.0743 9.32634L15.2471 5.67188H14.1094V4.53417L11.199 3.07898L10.8048 1.47403C11.1973 1.42978 11.5959 1.40625 12 1.40625C16.6095 1.40625 20.5402 4.36589 21.9933 8.48438H21.7271L18.6165 10.0142L16.9219 11.7088V13.8408L20.2715 15.5152L21.9933 15.5156C20.5402 19.6341 16.6095 22.5938 12 22.5938C7.9343 22.5938 4.39683 20.2912 2.62144 16.9219H3.85373Z" fill="#444444"/>
</svg>
