<svg width="30" height="26" viewBox="0 0 30 26" fill="none" xmlns="http://www.w3.org/2000/svg">
<path d="M27.5381 18.9522V7.61952L28.6591 7.20602C28.9838 7.0862 29.199 6.77984 29.199 6.4375C29.199 6.09516 28.9838 5.7888 28.6591 5.66903L15.3165 0.747156C15.1292 0.678031 14.9228 0.678031 14.7355 0.747156L1.39287 5.66903C1.06816 5.7888 0.852905 6.09516 0.852905 6.4375C0.852905 6.77984 1.06816 7.0862 1.39281 7.20597L6.92185 9.24554C5.61289 12.8938 5.94314 14.8129 5.89098 15.4609C5.89098 15.7331 6.02767 15.9876 6.25583 16.1402C6.48404 16.2928 6.77392 16.3236 7.02981 16.2226C7.04913 16.215 8.97943 15.4609 10.8737 15.4609C12.626 15.4609 14.4896 16.908 14.5071 16.9218C14.8105 17.1614 15.2414 17.1614 15.5447 16.9218C16.0589 16.5155 17.7141 15.4609 19.1782 15.4609C21.062 15.4609 23.0034 16.2152 23.0221 16.2226C23.2779 16.3236 23.5679 16.2928 23.796 16.1402C24.0242 15.9876 24.1609 15.7331 24.1609 15.4609C24.1127 14.8621 24.4322 12.8747 23.13 9.24554L25.8772 8.23218V18.9522C25.4502 19.1801 25.0778 19.5889 24.7904 20.1567C24.4202 20.8881 24.2163 21.8424 24.2163 22.8438V24.4844C24.2163 24.9374 24.5881 25.3047 25.0467 25.3047H28.3686C28.8272 25.3047 29.199 24.9374 29.199 24.4844V22.8438C29.199 21.8424 28.9951 20.8881 28.6249 20.1567C28.3375 19.5889 27.9651 19.1801 27.5381 18.9522ZM15.026 2.39128L25.9948 6.4375C24.8632 6.85493 16.121 10.0798 15.026 10.4837C13.9309 10.0798 5.1887 6.85493 4.05712 6.4375L15.026 2.39128ZM22.4932 14.3247C21.6416 14.0855 20.418 13.8203 19.1782 13.8203C17.4795 13.8203 15.8358 14.74 15.026 15.2728C14.2162 14.74 12.5724 13.8203 10.8737 13.8203C9.634 13.8203 8.41035 14.0855 7.5587 14.3247C7.60648 12.6569 7.90632 11.4148 8.4779 9.81954L14.7355 12.1278C14.9228 12.197 15.1292 12.197 15.3165 12.1278L21.5741 9.81954C22.1456 11.4148 22.4454 12.657 22.4932 14.3247ZM27.5381 23.6641H25.8772V22.8438C25.8772 22.1031 26.0226 21.3911 26.276 20.8904C26.4882 20.4711 26.6789 20.3828 26.7077 20.3828C26.7364 20.3828 26.9271 20.4711 27.1393 20.8904C27.3927 21.3911 27.5381 22.1031 27.5381 22.8438V23.6641Z" fill="#01B5E8"/>
</svg>
