<svg width="28" height="23" viewBox="0 0 28 23" fill="none" xmlns="http://www.w3.org/2000/svg">
<circle cx="7.53842" cy="5.38462" r="4.63462" stroke="#444444" stroke-width="1.5"/>
<circle cx="20.4615" cy="5.38462" r="4.63462" stroke="#444444" stroke-width="1.5"/>
<path d="M0.75 16.6923C0.75 13.2405 3.54822 10.4423 7 10.4423H12.1538C13.9488 10.4423 15.4038 11.8973 15.4038 13.6923V19.7115H0.75V16.6923Z" stroke="#444444" stroke-width="1.5"/>
<path d="M12.5962 13.6923C12.5962 11.8973 14.0513 10.4423 15.8462 10.4423H21C24.4518 10.4423 27.25 13.2405 27.25 16.6923V19.7115H12.5962V13.6923Z" stroke="#444444" stroke-width="1.5"/>
<circle cx="14.0001" cy="10.7692" r="3.55769" fill="white" stroke="#444444" stroke-width="1.5"/>
<path d="M8.28857 19C8.28857 16.6528 10.1914 14.75 12.5386 14.75H15.4616C17.8089 14.75 19.7117 16.6528 19.7117 19V21.8654H8.28857V19Z" fill="white" stroke="#444444" stroke-width="1.5"/>
</svg>
