<svg width="24" height="28" viewBox="0 0 24 28" fill="none" xmlns="http://www.w3.org/2000/svg">
<path d="M14.5739 9.84424H20.8867L23.1013 6.56299L20.8867 3.28174H14.5739V0.000488281H9.59114V3.28174H2.8921V9.84424H9.59114V11.4849H3.90326L0.950562 14.7661L3.90326 18.0474H9.59114V26.3599H6.26933V28.0005H17.8957V26.3599H14.5739V18.0474H21.2728V11.4849H14.5739V9.84424ZM11.252 1.64111H12.9129V3.28174H11.252V1.64111ZM4.55301 4.92236H19.9979L21.1052 6.56299L19.9979 8.20361H4.55301V4.92236ZM11.252 9.84424H12.9129V11.4849H11.252V9.84424ZM12.9129 26.3599H11.252V18.0474H12.9129V26.3599ZM19.6119 16.4067H4.64912L3.17274 14.7661L4.64912 13.1255H19.6119V16.4067Z" fill="#01B5E8"/>
</svg>
