<svg width="14" height="14" viewBox="0 0 14 14" fill="none" xmlns="http://www.w3.org/2000/svg">
<g clip-path="url(#clip0)">
<path d="M3.12335 1.17129C4.59471 0.19331 6.36114 -0.190425 8.10309 0.0889134C8.13342 0.0894876 8.16374 0.0924133 8.19407 0.0976632C10.0357 0.417223 11.643 1.43488 12.7201 2.96279C13.7961 4.49131 14.213 6.34695 13.894 8.18923C13.841 8.49307 13.7669 8.79923 13.6736 9.09664C13.2881 10.3487 13.3832 11.6906 13.9407 12.875C14.0381 13.0803 14.006 13.3241 13.8596 13.4985C13.7132 13.6728 13.4811 13.7452 13.2595 13.6857L10.6452 12.9719C9.53829 13.6495 8.28856 14 7.01257 14C6.54893 14 6.08183 13.9539 5.61702 13.86C3.7841 13.4909 2.20486 12.4307 1.17031 10.8742C-0.965884 7.66088 -0.0899439 3.30863 3.12335 1.17129ZM2.14129 10.2286C3.0038 11.5262 4.32002 12.4097 5.84679 12.717C7.37237 13.0244 8.92829 12.7188 10.2264 11.8557C10.3232 11.7915 10.4358 11.7583 10.5495 11.7583C10.6008 11.7583 10.6527 11.7653 10.7035 11.7793L12.4833 12.2651C12.183 11.1185 12.2052 9.90436 12.5597 8.75026C12.6385 8.49892 12.7009 8.24291 12.7446 7.98979C13.0105 6.45488 12.663 4.90829 11.766 3.63462C10.8843 2.38254 9.57506 1.54218 8.0722 1.26166C8.0442 1.26049 8.0168 1.25759 7.9888 1.25291C6.51393 0.998075 5.0152 1.31474 3.76835 2.14343C1.09041 3.92388 0.360864 7.55066 2.14129 10.2286Z" fill="#252644"/>
<path d="M6.9974 3.44238C7.31988 3.44238 7.58057 3.70307 7.58057 4.02556V7.52462C7.58057 7.8471 7.31988 8.10779 6.9974 8.10779C6.67492 8.10779 6.41423 7.84653 6.41423 7.52462V4.02556C6.41423 3.70307 6.67489 3.44238 6.9974 3.44238Z" fill="#252644"/>
<path d="M6.46146 9.69358C6.49061 9.61776 6.53143 9.55361 6.58393 9.50114C6.61308 9.47781 6.64226 9.44864 6.67723 9.43116C6.70638 9.40784 6.74138 9.39091 6.77637 9.37866C6.81137 9.36059 6.84635 9.34952 6.88717 9.34367C7.07321 9.30284 7.2779 9.36756 7.41145 9.50114C7.46395 9.55361 7.50474 9.61778 7.53392 9.69358C7.56307 9.76355 7.58057 9.83937 7.58057 9.9152C7.58057 9.99102 7.56307 10.0668 7.53392 10.1368C7.50477 10.2068 7.46395 10.2709 7.41145 10.3293C7.35313 10.3817 7.28898 10.4226 7.21901 10.4517C7.14904 10.4809 7.07321 10.4984 6.99739 10.4984C6.92157 10.4984 6.84635 10.4809 6.77637 10.4517C6.7064 10.4226 6.64283 10.3818 6.58393 10.3293C6.53143 10.2709 6.49064 10.2068 6.46146 10.1368C6.43231 10.0668 6.41482 9.99102 6.41482 9.9152C6.41482 9.83937 6.43231 9.76355 6.46146 9.69358Z" fill="#252644"/>
</g>
<defs>
<clipPath id="clip0">
<rect width="14" height="14" fill="white" transform="matrix(-1 0 0 1 14 0)"/>
</clipPath>
</defs>
</svg>
