<svg width="24" height="24" viewBox="0 0 24 24" fill="none" xmlns="http://www.w3.org/2000/svg">
<path d="M23.2969 22.5938H20.2031V15.7031C20.2031 14.9277 19.5723 14.2969 18.7969 14.2969H17.7515C17.476 13.095 16.9276 12.0631 16.1456 11.2879C15.6534 10.8 15.0811 10.4272 14.4465 10.1763C15.8068 9.00267 16.6945 6.97373 16.6945 5.14059C16.6945 3.47709 16.2318 2.17148 15.3192 1.26019C14.4937 0.43575 13.3459 0 12 0C10.6541 0 9.50634 0.43575 8.68078 1.26019C7.76817 2.17148 7.30542 3.47709 7.30542 5.14059C7.30542 6.97369 8.19319 9.00267 9.55345 10.1763C8.91886 10.4272 8.34661 10.8 7.85442 11.2879C7.07241 12.0631 6.52402 13.0951 6.24858 14.2969H5.20312C4.42772 14.2969 3.79688 14.9277 3.79688 15.7031V22.5938H0.703125C0.314812 22.5938 0 22.9086 0 23.2969C0 23.6852 0.314812 24 0.703125 24H23.2969C23.6852 24 24 23.6852 24 23.2969C24 22.9086 23.6852 22.5938 23.2969 22.5938ZM12 1.40625C13.0327 1.40625 14.6534 1.74952 15.1432 3.79036C14.4266 3.69923 14.0174 3.49678 13.6971 3.3383C13.3831 3.18295 13.0273 3.00684 12.593 3.10641C12.2404 3.18722 11.9884 3.38611 11.7447 3.57848C11.3005 3.92906 10.6521 4.43972 8.73703 4.54313C8.97548 1.8308 10.8515 1.40625 12 1.40625ZM8.7825 5.94881C11.1706 5.82305 12.0626 5.11912 12.616 4.6823C12.6961 4.61902 12.7992 4.53769 12.8631 4.49873C12.9195 4.52255 13.0028 4.56375 13.0735 4.59872C13.4866 4.80314 14.1353 5.12395 15.2865 5.21808C15.2681 6.25341 14.8832 7.4017 14.2471 8.30644C13.598 9.22978 12.7789 9.75937 12 9.75937C11.2211 9.75937 10.402 9.22978 9.75281 8.30644C9.26367 7.61067 8.92242 6.77062 8.7825 5.94881ZM11.625 11.2031H12.375C14.3263 11.2031 15.7497 12.3441 16.302 14.2969H7.698C8.25028 12.3441 9.67369 11.2031 11.625 11.2031ZM5.20312 22.5938V15.7031H18.7969V22.5938H5.20312Z" fill="#444444"/>
<path d="M12 19.4529C12.3883 19.4529 12.7031 19.1381 12.7031 18.7498C12.7031 18.3615 12.3883 18.0467 12 18.0467C11.6117 18.0467 11.2969 18.3615 11.2969 18.7498C11.2969 19.1381 11.6117 19.4529 12 19.4529Z" fill="#444444"/>
</svg>
