<svg width="60" height="57" viewBox="0 0 60 57" fill="none" xmlns="http://www.w3.org/2000/svg">
<path d="M54.8038 0C57.6736 -5.27665e-08 60 2.23858 60 5L60 56.25L0 1.00768e-06L54.8038 0Z" fill="#FFB65F"/>
<path d="M43.0318 10.7349C43.4036 10.01 44.4396 10.01 44.8114 10.7349L46.7388 14.4928C46.8874 14.7825 47.1677 14.9817 47.4901 15.0268L51.7348 15.6203C52.5669 15.7367 52.8933 16.7652 52.2804 17.3401L49.259 20.1741C49.0122 20.4055 48.8992 20.7459 48.9586 21.0789L49.6786 25.1182C49.8232 25.93 48.9785 26.5582 48.2427 26.186L44.373 24.2284C44.0892 24.0848 43.754 24.0848 43.4702 24.2284L39.6005 26.186C38.8647 26.5582 38.02 25.93 38.1647 25.1182L38.8846 21.0789C38.944 20.7459 38.831 20.4055 38.5842 20.1741L35.5628 17.3401C34.9499 16.7652 35.2763 15.7367 36.1084 15.6203L40.3531 15.0268C40.6755 14.9817 40.9558 14.7825 41.1044 14.4928L43.0318 10.7349Z" fill="white"/>
</svg>
