<svg width="40" height="34" viewBox="0 0 40 34" fill="none" xmlns="http://www.w3.org/2000/svg">
<path d="M39.8538 7.37744V32.3963C39.8538 33.2821 39.1358 34.0001 38.25 34.0001H1.60377C0.718009 34.0001 0 33.2821 0 32.3963V7.37744H39.8538Z" fill="#FAF8F8"/>
<path d="M39.8538 8.9811V7.37733L17.7208 6.35107L0 7.37733V8.9811V32.3962C0 33.282 0.718009 34 1.60377 34H2.8066C2.14264 34 1.60377 33.4611 1.60377 32.7971V9.46223C1.60377 9.19649 1.81916 8.9811 2.08491 8.9811H39.8538Z" fill="#F0E9E6"/>
<path d="M39.8538 1.60377V7.41745H0V1.60377C0 0.718009 0.718009 0 1.60377 0H38.25C39.1358 0 39.8538 0.718009 39.8538 1.60377Z" fill="#5D748A"/>
<path d="M18.2636 5.77358C17.6017 5.77358 17.0651 5.23503 17.0651 4.57075C17.0651 3.90647 17.6017 3.36792 18.2636 3.36792H34.9681C35.6301 3.36792 36.1667 3.90647 36.1667 4.57075C36.1667 5.23503 35.6301 5.77358 34.9681 5.77358H18.2636Z" fill="#3F597D"/>
<path d="M12.8999 5.77358C13.5618 5.77358 14.0985 5.23505 14.0985 4.57075C14.0985 3.90645 13.5618 3.36792 12.8999 3.36792C12.2379 3.36792 11.7013 3.90645 11.7013 4.57075C11.7013 5.23505 12.2379 5.77358 12.8999 5.77358Z" fill="#3F597D"/>
<path d="M13.7412 5.42746L14.7736 4.39551L13.72 4.49005L13.7412 5.42746Z" fill="#3F597D"/>
<path d="M12.0758 3.69724L13.0831 2.6936L12.8672 3.52821L12.0758 3.69724Z" fill="#3F597D"/>
<path d="M7.86118 5.77358C8.52314 5.77358 9.05976 5.23505 9.05976 4.57075C9.05976 3.90645 8.52314 3.36792 7.86118 3.36792C7.19922 3.36792 6.6626 3.90645 6.6626 4.57075C6.6626 5.23505 7.19922 5.77358 7.86118 5.77358Z" fill="#3F597D"/>
<path d="M8.70469 5.42513L9.69759 4.42285L8.68127 4.48989L8.70469 5.42513Z" fill="#3F597D"/>
<path d="M7.03711 3.69731L8.02912 2.69824L7.82849 3.52828L7.03711 3.69731Z" fill="#3F597D"/>
<path d="M2.64194 5.77358C3.3039 5.77358 3.84052 5.23505 3.84052 4.57075C3.84052 3.90645 3.3039 3.36792 2.64194 3.36792C1.97998 3.36792 1.44336 3.90645 1.44336 4.57075C1.44336 5.23505 1.97998 5.77358 2.64194 5.77358Z" fill="#3F597D"/>
<path d="M3.50984 5.40039L4.52992 4.34302L3.47632 4.45376L3.50984 5.40039Z" fill="#3F597D"/>
<path d="M1.81787 3.69725L2.74982 2.73193L2.60925 3.52821L1.81787 3.69725Z" fill="#3F597D"/>
<path d="M13.9408 4.7311C14.6027 4.7311 15.1393 4.19257 15.1393 3.52827C15.1393 2.86396 14.6027 2.32544 13.9408 2.32544C13.2788 2.32544 12.7422 2.86396 12.7422 3.52827C12.7422 4.19257 13.2788 4.7311 13.9408 4.7311Z" fill="#B7E546"/>
<path d="M17.4421 3.69481L18.4823 2.65308L18.2397 3.79785L17.4421 3.69481Z" fill="#3F597D"/>
<path d="M35.8307 5.40593L36.8851 4.34912L36.0684 4.62024L35.8307 5.40593Z" fill="#3F597D"/>
<path d="M8.8967 4.7311C9.55866 4.7311 10.0953 4.19257 10.0953 3.52827C10.0953 2.86396 9.55866 2.32544 8.8967 2.32544C8.23474 2.32544 7.69812 2.86396 7.69812 3.52827C7.69812 4.19257 8.23474 4.7311 8.8967 4.7311Z" fill="#FFBF54"/>
<path d="M3.64816 4.7311C4.31012 4.7311 4.84675 4.19257 4.84675 3.52827C4.84675 2.86396 4.31012 2.32544 3.64816 2.32544C2.98621 2.32544 2.44958 2.86396 2.44958 3.52827C2.44958 4.19257 2.98621 4.7311 3.64816 4.7311Z" fill="#DC4955"/>
<path d="M19.3044 4.7311C18.6425 4.7311 18.1058 4.19255 18.1058 3.52827C18.1058 2.86399 18.6425 2.32544 19.3044 2.32544H36.0089C36.6709 2.32544 37.2075 2.86399 37.2075 3.52827C37.2075 4.19255 36.6709 4.7311 36.0089 4.7311H19.3044Z" fill="#FAF8F8"/>
<path d="M26.6544 17.863L18.4493 25.3224C18.0784 25.6594 17.4773 25.6594 17.1065 25.3224L12.2781 20.9328C11.9073 20.5957 11.9073 20.0492 12.2781 19.7121L20.4832 12.2528C20.8541 11.9157 21.4552 11.9157 21.826 12.2528L26.6544 16.6423C27.0253 16.9793 27.0253 17.526 26.6544 17.863Z" fill="#8CBAFA"/>
<path d="M26.6542 16.6423L26.0517 16.0945C26.3819 16.3947 26.3489 16.9113 25.9781 17.2483L17.7728 24.7076C17.4021 25.0448 16.8338 25.0747 16.5037 24.7745L17.1063 25.3224C17.477 25.6594 18.0782 25.6594 18.4491 25.3224L26.6542 17.863C27.0251 17.526 27.0251 16.9794 26.6542 16.6423Z" fill="#5692D8"/>
<path d="M13.8559 20.6259C13.7898 20.6259 13.7239 20.603 13.6736 20.5572C13.5728 20.4656 13.5728 20.3173 13.6736 20.2258L17.6926 16.5721C17.7933 16.4805 17.9566 16.4805 18.0572 16.5721C18.1579 16.6636 18.1579 16.8121 18.0572 16.9035L14.0381 20.5573C13.9878 20.603 13.9218 20.6259 13.8559 20.6259Z" fill="#252D4C"/>
<path d="M15.133 21.787C15.0669 21.787 15.001 21.7641 14.9507 21.7183C14.8499 21.6268 14.8499 21.4785 14.9507 21.3869L18.9697 17.7332C19.0704 17.6417 19.2337 17.6417 19.3343 17.7332C19.435 17.8248 19.435 17.9732 19.3343 18.0646L15.3152 21.7183C15.2649 21.7641 15.1989 21.787 15.133 21.787Z" fill="#252D4C"/>
<path d="M20.3493 13.9531L19.5453 14.6839C19.2292 14.9713 19.2292 15.4371 19.5453 15.7244C19.8614 16.0118 20.3739 16.0118 20.69 15.7244L21.4939 14.9936C21.81 14.7062 21.81 14.2404 21.4939 13.9531C21.1778 13.6657 20.6653 13.6657 20.3493 13.9531Z" fill="#FFCD34"/>
<path d="M27.4293 20.0659H15.8253C15.301 20.0659 14.8759 20.4524 14.8759 20.9291V27.1368C14.8759 27.6135 15.301 28 15.8253 28H27.4293C27.9538 28 28.3788 27.6135 28.3788 27.1368V20.9291C28.3789 20.4524 27.9538 20.0659 27.4293 20.0659Z" fill="#FFCD34"/>
<path d="M27.4293 20.0659H26.5795C27.1038 20.0659 27.5289 20.4524 27.5289 20.9291V27.1368C27.5289 27.6135 27.1038 28 26.5795 28H27.4293C27.9538 28 28.3788 27.6135 28.3788 27.1368V20.9291C28.3789 20.4524 27.9538 20.0659 27.4293 20.0659Z" fill="#E69012"/>
<path d="M14.8759 22.0161H28.3789V23.5074H14.8759V22.0161Z" fill="#575B7A"/>
<path d="M27.5286 22.0161H28.3784V23.5074H27.5286V22.0161Z" fill="#252D4C"/>
<path d="M25.0603 25.8903V26.8101C25.0603 26.8812 25.1237 26.9388 25.202 26.9388H26.8113C26.8896 26.9388 26.9529 26.8812 26.9529 26.8101V25.8903C26.9529 25.8191 26.8896 25.7615 26.8113 25.7615H25.202C25.1237 25.7615 25.0603 25.8191 25.0603 25.8903Z" fill="#E9E9EA"/>
<path d="M20.208 25.8903V26.8101C20.208 26.8812 20.2715 26.9388 20.3497 26.9388H23.7536C23.8319 26.9388 23.8953 26.8812 23.8953 26.8101V25.8903C23.8953 25.8191 23.8319 25.7615 23.7536 25.7615H20.3497C20.2715 25.7615 20.208 25.8191 20.208 25.8903Z" fill="#E9E9EA"/>
<path d="M18.8201 27.1733H17.1243C16.9818 27.1733 16.8665 27.0684 16.8665 26.939C16.8665 26.8094 16.9818 26.7046 17.1243 26.7046H18.8201C18.9625 26.7046 19.0779 26.8094 19.0779 26.939C19.0779 27.0684 18.9625 27.1733 18.8201 27.1733Z" fill="#252D4C"/>
</svg>
