<svg width="40" height="34" viewBox="0 0 40 34" fill="none" xmlns="http://www.w3.org/2000/svg">
<path d="M39.8538 7.37744V32.3963C39.8538 33.2821 39.1358 34.0001 38.25 34.0001H1.60377C0.718009 34.0001 0 33.2821 0 32.3963V7.37744H39.8538Z" fill="#FAF8F8"/>
<path d="M39.8538 8.9811V7.37733L17.7208 6.35107L0 7.37733V8.9811V32.3962C0 33.282 0.718009 34 1.60377 34H2.8066C2.14264 34 1.60377 33.4611 1.60377 32.7971V9.46223C1.60377 9.19649 1.81916 8.9811 2.08491 8.9811H39.8538Z" fill="#F0E9E6"/>
<path d="M39.8538 1.60377V7.41745H0V1.60377C0 0.718009 0.718009 0 1.60377 0H38.25C39.1358 0 39.8538 0.718009 39.8538 1.60377Z" fill="#5D748A"/>
<path d="M18.2636 5.77358C17.6017 5.77358 17.0651 5.23503 17.0651 4.57075C17.0651 3.90647 17.6017 3.36792 18.2636 3.36792H34.9681C35.6301 3.36792 36.1667 3.90647 36.1667 4.57075C36.1667 5.23503 35.6301 5.77358 34.9681 5.77358H18.2636Z" fill="#3F597D"/>
<path d="M12.8999 5.77358C13.5618 5.77358 14.0985 5.23505 14.0985 4.57075C14.0985 3.90645 13.5618 3.36792 12.8999 3.36792C12.2379 3.36792 11.7013 3.90645 11.7013 4.57075C11.7013 5.23505 12.2379 5.77358 12.8999 5.77358Z" fill="#3F597D"/>
<path d="M13.7412 5.42746L14.7736 4.39551L13.72 4.49005L13.7412 5.42746Z" fill="#3F597D"/>
<path d="M12.0758 3.69724L13.0831 2.6936L12.8672 3.52821L12.0758 3.69724Z" fill="#3F597D"/>
<path d="M7.86118 5.77358C8.52314 5.77358 9.05976 5.23505 9.05976 4.57075C9.05976 3.90645 8.52314 3.36792 7.86118 3.36792C7.19922 3.36792 6.6626 3.90645 6.6626 4.57075C6.6626 5.23505 7.19922 5.77358 7.86118 5.77358Z" fill="#3F597D"/>
<path d="M8.70469 5.42513L9.69759 4.42285L8.68127 4.48989L8.70469 5.42513Z" fill="#3F597D"/>
<path d="M7.03711 3.69731L8.02912 2.69824L7.82849 3.52828L7.03711 3.69731Z" fill="#3F597D"/>
<path d="M2.64194 5.77358C3.3039 5.77358 3.84052 5.23505 3.84052 4.57075C3.84052 3.90645 3.3039 3.36792 2.64194 3.36792C1.97998 3.36792 1.44336 3.90645 1.44336 4.57075C1.44336 5.23505 1.97998 5.77358 2.64194 5.77358Z" fill="#3F597D"/>
<path d="M3.50984 5.40039L4.52992 4.34302L3.47632 4.45376L3.50984 5.40039Z" fill="#3F597D"/>
<path d="M1.81787 3.69725L2.74982 2.73193L2.60925 3.52821L1.81787 3.69725Z" fill="#3F597D"/>
<path d="M13.9408 4.7311C14.6027 4.7311 15.1393 4.19257 15.1393 3.52827C15.1393 2.86396 14.6027 2.32544 13.9408 2.32544C13.2788 2.32544 12.7422 2.86396 12.7422 3.52827C12.7422 4.19257 13.2788 4.7311 13.9408 4.7311Z" fill="#B7E546"/>
<path d="M17.4421 3.69481L18.4823 2.65308L18.2397 3.79785L17.4421 3.69481Z" fill="#3F597D"/>
<path d="M35.8307 5.40593L36.8851 4.34912L36.0684 4.62024L35.8307 5.40593Z" fill="#3F597D"/>
<path d="M8.8967 4.7311C9.55866 4.7311 10.0953 4.19257 10.0953 3.52827C10.0953 2.86396 9.55866 2.32544 8.8967 2.32544C8.23474 2.32544 7.69812 2.86396 7.69812 3.52827C7.69812 4.19257 8.23474 4.7311 8.8967 4.7311Z" fill="#FFBF54"/>
<path d="M3.64816 4.7311C4.31012 4.7311 4.84675 4.19257 4.84675 3.52827C4.84675 2.86396 4.31012 2.32544 3.64816 2.32544C2.98621 2.32544 2.44958 2.86396 2.44958 3.52827C2.44958 4.19257 2.98621 4.7311 3.64816 4.7311Z" fill="#DC4955"/>
<path d="M19.3044 4.7311C18.6425 4.7311 18.1058 4.19255 18.1058 3.52827C18.1058 2.86399 18.6425 2.32544 19.3044 2.32544H36.0089C36.6709 2.32544 37.2075 2.86399 37.2075 3.52827C37.2075 4.19255 36.6709 4.7311 36.0089 4.7311H19.3044Z" fill="#FAF8F8"/>
<path d="M19.5197 25.3496C19.797 25.5321 20.2032 25.5321 20.4804 25.3496L27.6841 21.1408L27.9505 20.3965C27.9137 20.3298 27.8585 20.2733 27.7846 20.2261L20.3743 15.4936C20.1568 15.3547 19.8434 15.3547 19.6259 15.4936L12.2155 20.2261C12.1419 20.2732 12.0865 20.33 12.0497 20.3965L12.3161 21.1353L19.5197 25.3496Z" fill="#FFC250"/>
<path d="M25.5616 26.675C25.8872 26.675 26.1512 26.4697 26.1512 26.2164V21.4624L20.4805 24.8217C20.2032 25.0042 19.797 25.0042 19.5198 24.8217L12.0497 20.3965C12.0174 20.4538 12.0001 20.5164 12.0001 20.5805V26.3815L12.4076 26.675H25.5616Z" fill="#FFE07D"/>
<path d="M27.9506 20.3965L25.7767 21.6842V25.9229C25.7767 26.1761 25.5127 26.3814 25.1871 26.3814H12.0001V27.1131C12.0001 27.3664 12.2641 27.5717 12.5898 27.5717H27.4105C27.7361 27.5717 28.0001 27.3664 28.0001 27.1131V20.5805C28.0001 20.5164 27.9828 20.4538 27.9506 20.3965Z" fill="#FFD064"/>
<path d="M24.8374 16.4256H24.385C24.051 16.4256 23.7802 16.2151 23.7802 15.9553V14.8243L23.3218 14.0682C23.1944 14.0223 23.0607 14 22.9177 14H14.5347C13.996 14 13.5593 14.3396 13.5593 14.7586V21.2909L19.5197 24.8217C19.7969 25.0042 20.2031 25.0042 20.4803 24.8217L24.8374 22.2407V16.4256Z" fill="#F4FBFF"/>
<path d="M24.2177 16.4255V21.6953L19.2301 24.6498L19.5201 24.8216C19.7973 25.0041 20.2035 25.0041 20.4807 24.8216L26.4411 21.2908V16.7398C26.4411 16.6303 26.4106 16.5233 26.3534 16.4255H24.2177Z" fill="#E4F6FF"/>
<path d="M26.1553 16.2034L23.6077 14.2221C23.5243 14.1573 23.4273 14.1054 23.322 14.0681V15.9553C23.322 16.215 23.5928 16.4256 23.9268 16.4256H26.3533C26.3054 16.3437 26.2387 16.2683 26.1553 16.2034Z" fill="#E28086"/>
<path d="M18.6644 19.2062H15.7624C15.4482 19.2062 15.1936 19.0082 15.1936 18.7639V15.9653C15.1936 15.721 15.4483 15.5229 15.7624 15.5229H18.6644C18.9786 15.5229 19.2332 15.721 19.2332 15.9653V18.7638C19.2332 19.0082 18.9786 19.2062 18.6644 19.2062Z" fill="#BED8FB"/>
<path d="M17.1998 17.9917C16.6472 17.9917 16.1768 18.3774 15.9998 18.9169C16.0405 19.074 16.1719 19.1892 16.3282 19.1892H18.0714C18.2276 19.1892 18.3591 19.074 18.3998 18.9169C18.2228 18.3774 17.7524 17.9917 17.1998 17.9917Z" fill="#4A80AA"/>
<path d="M17.1997 17.9917C17.6415 17.9917 17.9997 17.6343 17.9997 17.1934C17.9997 16.7524 17.6415 16.395 17.1997 16.395C16.7578 16.395 16.3997 16.7524 16.3997 17.1934C16.3997 17.6343 16.7578 17.9917 17.1997 17.9917Z" fill="#365E7D"/>
<path d="M24.8066 21.0539H15.216C15.0705 21.0539 14.9526 20.9622 14.9526 20.8491C14.9526 20.736 15.0705 20.6443 15.216 20.6443H24.8066C24.9521 20.6443 25.07 20.7359 25.07 20.8491C25.0699 20.9622 24.9521 21.0539 24.8066 21.0539Z" fill="#407093"/>
<path d="M22.4992 22.3805H17.523C17.3775 22.3805 17.2596 22.2889 17.2596 22.1757C17.2596 22.0626 17.3775 21.9709 17.523 21.9709H22.4992C22.6447 21.9709 22.7626 22.0626 22.7626 22.1757C22.7626 22.2889 22.6447 22.3805 22.4992 22.3805Z" fill="#407093"/>
<path d="M24.8064 18.8078H21.2823C21.1368 18.8078 21.0189 18.7161 21.0189 18.603C21.0189 18.4899 21.1368 18.3982 21.2823 18.3982H24.8064C24.9518 18.3982 25.0697 18.4899 25.0697 18.603C25.0697 18.7161 24.9518 18.8078 24.8064 18.8078Z" fill="#407093"/>
<path d="M24.8066 17.7658H21.2825C21.1371 17.7658 21.0192 17.6741 21.0192 17.561C21.0192 17.4479 21.137 17.3562 21.2825 17.3562H24.8066C24.9521 17.3562 25.07 17.4479 25.07 17.561C25.0699 17.6741 24.9521 17.7658 24.8066 17.7658Z" fill="#407093"/>
</svg>
