<svg width="40" height="34" viewBox="0 0 40 34" fill="none" xmlns="http://www.w3.org/2000/svg">
<path d="M39.8538 7.37744V32.3963C39.8538 33.2821 39.1358 34.0001 38.25 34.0001H1.60377C0.718009 34.0001 0 33.2821 0 32.3963V7.37744H39.8538Z" fill="#FAF8F8"/>
<path d="M39.8538 8.9811V7.37733L17.7208 6.35107L0 7.37733V8.9811V32.3962C0 33.282 0.718009 34 1.60377 34H2.8066C2.14264 34 1.60377 33.4611 1.60377 32.7971V9.46223C1.60377 9.19649 1.81916 8.9811 2.08491 8.9811H39.8538Z" fill="#F0E9E6"/>
<path d="M39.8538 1.60377V7.41745H0V1.60377C0 0.718009 0.718009 0 1.60377 0H38.25C39.1358 0 39.8538 0.718009 39.8538 1.60377Z" fill="#5D748A"/>
<path d="M18.2636 5.77358C17.6017 5.77358 17.0651 5.23503 17.0651 4.57075C17.0651 3.90647 17.6017 3.36792 18.2636 3.36792H34.9681C35.6301 3.36792 36.1667 3.90647 36.1667 4.57075C36.1667 5.23503 35.6301 5.77358 34.9681 5.77358H18.2636Z" fill="#3F597D"/>
<path d="M12.8999 5.77358C13.5618 5.77358 14.0985 5.23505 14.0985 4.57075C14.0985 3.90645 13.5618 3.36792 12.8999 3.36792C12.2379 3.36792 11.7013 3.90645 11.7013 4.57075C11.7013 5.23505 12.2379 5.77358 12.8999 5.77358Z" fill="#3F597D"/>
<path d="M13.7412 5.42746L14.7736 4.39551L13.72 4.49005L13.7412 5.42746Z" fill="#3F597D"/>
<path d="M12.0758 3.69724L13.0831 2.6936L12.8672 3.52821L12.0758 3.69724Z" fill="#3F597D"/>
<path d="M7.86118 5.77358C8.52314 5.77358 9.05976 5.23505 9.05976 4.57075C9.05976 3.90645 8.52314 3.36792 7.86118 3.36792C7.19922 3.36792 6.6626 3.90645 6.6626 4.57075C6.6626 5.23505 7.19922 5.77358 7.86118 5.77358Z" fill="#3F597D"/>
<path d="M8.70469 5.42513L9.69759 4.42285L8.68127 4.48989L8.70469 5.42513Z" fill="#3F597D"/>
<path d="M7.03711 3.69731L8.02912 2.69824L7.82849 3.52828L7.03711 3.69731Z" fill="#3F597D"/>
<path d="M2.64194 5.77358C3.3039 5.77358 3.84052 5.23505 3.84052 4.57075C3.84052 3.90645 3.3039 3.36792 2.64194 3.36792C1.97998 3.36792 1.44336 3.90645 1.44336 4.57075C1.44336 5.23505 1.97998 5.77358 2.64194 5.77358Z" fill="#3F597D"/>
<path d="M3.50984 5.40039L4.52992 4.34302L3.47632 4.45376L3.50984 5.40039Z" fill="#3F597D"/>
<path d="M1.81787 3.69725L2.74982 2.73193L2.60925 3.52821L1.81787 3.69725Z" fill="#3F597D"/>
<path d="M13.9408 4.7311C14.6027 4.7311 15.1393 4.19257 15.1393 3.52827C15.1393 2.86396 14.6027 2.32544 13.9408 2.32544C13.2788 2.32544 12.7422 2.86396 12.7422 3.52827C12.7422 4.19257 13.2788 4.7311 13.9408 4.7311Z" fill="#B7E546"/>
<path d="M17.4421 3.69481L18.4823 2.65308L18.2397 3.79785L17.4421 3.69481Z" fill="#3F597D"/>
<path d="M35.8307 5.40593L36.8851 4.34912L36.0684 4.62024L35.8307 5.40593Z" fill="#3F597D"/>
<path d="M8.8967 4.7311C9.55866 4.7311 10.0953 4.19257 10.0953 3.52827C10.0953 2.86396 9.55866 2.32544 8.8967 2.32544C8.23474 2.32544 7.69812 2.86396 7.69812 3.52827C7.69812 4.19257 8.23474 4.7311 8.8967 4.7311Z" fill="#FFBF54"/>
<path d="M3.64816 4.7311C4.31012 4.7311 4.84675 4.19257 4.84675 3.52827C4.84675 2.86396 4.31012 2.32544 3.64816 2.32544C2.98621 2.32544 2.44958 2.86396 2.44958 3.52827C2.44958 4.19257 2.98621 4.7311 3.64816 4.7311Z" fill="#DC4955"/>
<path d="M19.3044 4.7311C18.6425 4.7311 18.1058 4.19255 18.1058 3.52827C18.1058 2.86399 18.6425 2.32544 19.3044 2.32544H36.0089C36.6709 2.32544 37.2075 2.86399 37.2075 3.52827C37.2075 4.19255 36.6709 4.7311 36.0089 4.7311H19.3044Z" fill="#FAF8F8"/>
<path d="M29.8634 16.4155C29.8634 16.3465 29.8486 16.279 29.8209 16.2173C29.7975 16.1654 27.7382 14.7812 27.7382 14.7812C27.697 14.7395 26.738 13.0683 26.6858 13.0442C26.623 13.0154 26.5542 13 26.4838 13H19.8091C19.5424 13 19.4707 13.2039 19.4707 13.4706V15.1176V26.1765H25.9018H29.3531C29.6197 26.1765 29.8634 26.0995 29.8634 25.8328V16.4155Z" fill="#ECF9FF"/>
<path d="M28.2695 20.6714H25.3107C25.1773 20.6714 25.0692 20.5633 25.0692 20.4299C25.0692 20.2966 25.1773 20.1885 25.3107 20.1885H28.2695C28.4029 20.1885 28.511 20.2966 28.511 20.4299C28.511 20.5633 28.4029 20.6714 28.2695 20.6714Z" fill="#C7EFFF"/>
<path d="M28.2695 24.0557H25.3107C25.1773 24.0557 25.0692 23.9475 25.0692 23.8142C25.0692 23.6809 25.1773 23.5728 25.3107 23.5728H28.2695C28.4029 23.5728 28.511 23.6809 28.511 23.8142C28.511 23.9475 28.4029 24.0557 28.2695 24.0557Z" fill="#C7EFFF"/>
<path d="M28.2695 25.0212H25.3107C25.1773 25.0212 25.0692 24.9131 25.0692 24.7798C25.0692 24.6464 25.1773 24.5383 25.3107 24.5383H28.2695C28.4029 24.5383 28.511 24.6464 28.511 24.7798C28.511 24.9131 28.4029 25.0212 28.2695 25.0212Z" fill="#C7EFFF"/>
<path d="M29.8633 16.4154V16.6359H26.9514C26.5741 16.6359 26.267 16.3288 26.267 15.9511V13H26.4836C26.5541 13 26.6227 13.0155 26.6855 13.0441C26.738 13.0682 27.6967 14.7394 27.7382 14.7812C27.7382 14.7812 29.7973 16.1652 29.8208 16.2174C29.8485 16.2789 29.8633 16.3465 29.8633 16.4154Z" fill="#E6F7FE"/>
<path d="M29.8208 16.2174H26.9517C26.8049 16.2174 26.6858 16.0983 26.6858 15.9512V13.0444C26.7383 13.0686 26.7862 13.1021 26.8274 13.1436L29.7242 16.0761C29.7651 16.1176 29.7976 16.1652 29.8208 16.2174Z" fill="#D3EFFD"/>
<path d="M21.8236 16.4046V26.1766H19.4707V15.353H21.4332C21.6485 15.353 21.8236 15.8247 21.8236 16.4046Z" fill="#E6F7FE"/>
<path d="M11.2076 16.2173C11.2076 15.9506 11.2166 15.6614 11.4833 15.6614H21.0636C21.3303 15.6614 21.5465 15.8776 21.5465 16.1443V28.517C21.5465 28.7837 21.2775 28.8648 21.0108 28.8648L11.5959 28.902C11.3292 28.902 11.113 28.6858 11.113 28.4191L11.2076 16.2173Z" fill="#ECF9FF"/>
<path d="M21.5462 28.4527V28.5171C21.5462 28.7838 21.3299 29 21.0633 29H11.4829C11.2162 29 11 28.7838 11 28.5171V16.1443C11 15.8776 11.2162 15.6614 11.4829 15.6614H11.5473V28.2917C11.5473 28.3806 11.6194 28.4527 11.7082 28.4527H21.5462Z" fill="#E6F7FE"/>
<path d="M13.7062 17.416H12.0615C11.9282 17.416 11.8201 17.3079 11.8201 17.1746C11.8201 17.0412 11.9282 16.9331 12.0615 16.9331H13.7062C13.8395 16.9331 13.9476 17.0412 13.9476 17.1746C13.9476 17.3079 13.8395 17.416 13.7062 17.416Z" fill="#94D4A2"/>
<path d="M14.6012 18.4038H12.0615C11.9282 18.4038 11.8201 18.2957 11.8201 18.1623C11.8201 18.029 11.9282 17.9209 12.0615 17.9209H14.6012C14.7345 17.9209 14.8427 18.029 14.8427 18.1623C14.8427 18.2957 14.7345 18.4038 14.6012 18.4038Z" fill="#C7EFFF"/>
<path d="M14.9543 19.4783H12.0615C11.9282 19.4783 11.8201 19.3702 11.8201 19.2368C11.8201 19.1035 11.9282 18.9954 12.0615 18.9954H14.9543C15.0877 18.9954 15.1958 19.1035 15.1958 19.2368C15.1958 19.3702 15.0877 19.4783 14.9543 19.4783Z" fill="#C7EFFF"/>
<path d="M14.9543 20.4685H12.0615C11.9282 20.4685 11.8201 20.3604 11.8201 20.227C11.8201 20.0937 11.9282 19.9856 12.0615 19.9856H14.9543C15.0877 19.9856 15.1958 20.0937 15.1958 20.227C15.1958 20.3604 15.0877 20.4685 14.9543 20.4685Z" fill="#C7EFFF"/>
<path d="M13.2981 22.1428H12.0615C11.9282 22.1428 11.8201 22.0347 11.8201 21.9014C11.8201 21.768 11.9282 21.6599 12.0615 21.6599H13.2981C13.4314 21.6599 13.5395 21.768 13.5395 21.9014C13.5395 22.0347 13.4314 22.1428 13.2981 22.1428Z" fill="#94D4A2"/>
<path d="M14.6012 23.2053H12.0615C11.9282 23.2053 11.8201 23.0972 11.8201 22.9639C11.8201 22.8305 11.9282 22.7224 12.0615 22.7224H14.6012C14.7345 22.7224 14.8427 22.8305 14.8427 22.9639C14.8427 23.0972 14.7345 23.2053 14.6012 23.2053Z" fill="#C7EFFF"/>
<path d="M19.1426 23.2053H15.7559C15.6225 23.2053 15.5144 23.0972 15.5144 22.9639C15.5144 22.8305 15.6225 22.7224 15.7559 22.7224H19.1426C19.276 22.7224 19.3841 22.8305 19.3841 22.9639C19.3841 23.0972 19.276 23.2053 19.1426 23.2053Z" fill="#C7EFFF"/>
<path d="M17.5432 24.1711H12.0615C11.9282 24.1711 11.8201 24.063 11.8201 23.9297C11.8201 23.7963 11.9282 23.6882 12.0615 23.6882H17.5432C17.6766 23.6882 17.7847 23.7963 17.7847 23.9297C17.7847 24.063 17.6766 24.1711 17.5432 24.1711Z" fill="#C7EFFF"/>
<path d="M14.7532 25.6557H12.2135C12.0802 25.6557 11.972 25.5476 11.972 25.4143C11.972 25.281 12.0802 25.1729 12.2135 25.1729H14.7532C14.8865 25.1729 14.9946 25.281 14.9946 25.4143C14.9946 25.5476 14.8865 25.6557 14.7532 25.6557Z" fill="#94D4A2"/>
<path d="M19.9627 26.7825H14.1977C14.0644 26.7825 13.9563 26.6744 13.9563 26.541C13.9563 26.4077 14.0644 26.2996 14.1977 26.2996H19.9627C20.0961 26.2996 20.2042 26.4077 20.2042 26.541C20.2042 26.6744 20.0961 26.7825 19.9627 26.7825Z" fill="#C7EFFF"/>
<path d="M19.9627 27.7483H14.1977C14.0644 27.7483 13.9563 27.6402 13.9563 27.5068C13.9563 27.3735 14.0644 27.2654 14.1977 27.2654H19.9627C20.0961 27.2654 20.2042 27.3735 20.2042 27.5068C20.2042 27.6402 20.0961 27.7483 19.9627 27.7483Z" fill="#C7EFFF"/>
<path d="M13.1034 26.7825H12.8889C12.7556 26.7825 12.6475 26.6744 12.6475 26.541C12.6475 26.4077 12.7556 26.2996 12.8889 26.2996H13.1034C13.2367 26.2996 13.3448 26.4077 13.3448 26.541C13.3448 26.6744 13.2367 26.7825 13.1034 26.7825Z" fill="#FFE07D"/>
<path d="M13.1034 27.7483H12.8889C12.7556 27.7483 12.6475 27.6402 12.6475 27.5068C12.6475 27.3735 12.7556 27.2654 12.8889 27.2654H13.1034C13.2367 27.2654 13.3448 27.3735 13.3448 27.5068C13.3448 27.6402 13.2367 27.7483 13.1034 27.7483Z" fill="#FFE07D"/>
<path d="M22.0292 14.657H20.6023C20.4689 14.657 20.3608 14.5489 20.3608 14.4155C20.3608 14.2822 20.4689 14.1741 20.6023 14.1741H22.0292C22.1626 14.1741 22.2707 14.2822 22.2707 14.4155C22.2707 14.5489 22.1626 14.657 22.0292 14.657Z" fill="#C7EFFF"/>
<path d="M20.2042 21.66H19.7843L18.35 21.4569L16.7482 21.7788L16.4341 21.66C16.2563 21.66 16.1122 21.5159 16.1122 21.3381L16.0609 17.0941C16.0609 16.9163 16.205 16.7722 16.3828 16.7722L16.4394 16.6538H20.249C20.4268 16.6538 20.5709 16.7979 20.5709 16.9757V21.4569C20.5709 21.6346 20.382 21.66 20.2042 21.66Z" fill="#BED9FD"/>
<path d="M20.5711 21.296V21.457C20.5711 21.6347 20.4269 21.7789 20.2492 21.7789H19.7842L18.3616 21.457L16.7482 21.7789H16.2785C16.1008 21.7789 15.9565 21.6347 15.9565 21.457V16.976C15.9565 16.798 16.1008 16.6541 16.2785 16.6541H16.4394V21.135C16.4394 21.2239 16.5116 21.296 16.6004 21.296H20.5711Z" fill="#9EC8FC"/>
<path d="M19.7844 21.7787L19.706 21.1607C19.6744 20.9286 19.5192 20.7319 19.3008 20.6472L19.2366 20.6223L18.6489 20.4683L17.8201 20.4172L17.2792 20.6826C17.0608 20.7673 16.9352 20.9506 16.9036 21.1827L16.8669 21.6599L17.2822 21.6151L19.7844 21.7787Z" fill="#D5717F"/>
<path d="M19.7846 21.7787L19.7232 21.2958H17.3645C17.3259 21.2958 17.2961 21.2619 17.3009 21.2236C17.3093 21.1667 17.3479 21.1184 17.4017 21.0974L17.7852 20.9488C17.7993 20.9433 17.8148 20.9432 17.8291 20.9481C17.9675 20.9953 18.1135 21.0205 18.2642 21.0205C18.4232 21.0205 18.5765 20.9925 18.7213 20.9404C18.9097 20.8728 19.0838 20.764 19.2367 20.6223L18.7078 20.4172H17.8202L17.2916 20.6223L17.2272 20.6471C17.0087 20.7321 16.8535 20.9285 16.8219 21.1609L16.7485 21.7787H17.2304H17.2305H19.7846V21.7787Z" fill="#CD5668"/>
<path d="M17.2108 19.0621C17.236 19.8737 17.6523 20.5378 18.2642 20.5378C18.8771 20.5378 19.3766 19.8883 19.4004 19.075L18.2699 18.1689L17.2108 19.0621Z" fill="#F7E5C1"/>
<path d="M18.4217 19.2453C18.1882 19.3797 17.9246 19.4566 17.6926 19.5001C17.8326 19.9869 18.1394 20.3822 18.5135 20.501C18.433 20.5252 18.3497 20.5377 18.264 20.5377C17.7782 20.5377 17.3639 20.1302 17.201 19.5561C17.1585 19.4068 17.1331 19.2461 17.1279 19.0787L18.2695 18.1689L18.4968 18.3508L19.4001 19.0749C19.3953 19.2413 19.3705 19.401 19.3287 19.5497C18.9577 19.5206 18.7176 19.4246 18.5058 19.2509C18.4819 19.2314 18.4484 19.2299 18.4217 19.2453Z" fill="#F4D9B1"/>
<path d="M19.334 17.8888C19.2882 17.8342 19.1617 17.6838 18.9365 17.6282C18.8552 17.6082 18.7797 17.6051 18.7144 17.61C18.5798 17.62 18.4441 17.6074 18.3146 17.5692C18.1734 17.5274 17.9744 17.4983 17.7486 17.5537C17.7175 17.5613 17.6657 17.5754 17.6029 17.6006C17.4683 17.6546 17.391 17.8048 17.2475 18.0055C17.0116 18.3354 17.1332 18.7556 17.1737 18.8993C17.183 18.9324 17.213 18.9554 17.2474 18.9554C17.6459 18.9556 18.1739 18.9692 18.4464 18.5992C18.4712 18.5655 18.5214 18.565 18.5478 18.5975C18.8242 18.938 18.9757 19.0459 19.4122 19.0717C19.4492 19.0739 19.4821 19.0486 19.4906 19.0126C19.5287 18.8515 19.5956 18.2001 19.334 17.8888Z" fill="#5F6C75"/>
<path d="M18.4687 18.5806C18.4604 18.5847 18.453 18.5909 18.4468 18.5989C18.1745 18.9691 17.4975 19.075 17.0989 19.075C17.0645 19.075 17.0345 19.0519 17.0252 19.0187C16.9846 18.8751 16.9038 18.2895 17.1398 17.9599C17.3143 17.7158 17.5506 17.6138 17.6823 17.5723C17.6732 17.5839 17.6642 17.5958 17.6555 17.608C17.4199 17.938 17.5007 18.5236 17.5409 18.6672C17.5503 18.7003 17.5802 18.7232 17.6146 18.7232C17.8493 18.7235 18.1803 18.6865 18.4687 18.5806Z" fill="#4E5A61"/>
</svg>
