<svg width="40" height="34" viewBox="0 0 40 34" fill="none" xmlns="http://www.w3.org/2000/svg">
<path d="M39.8538 7.37744V32.3963C39.8538 33.2821 39.1358 34.0001 38.25 34.0001H1.60377C0.718009 34.0001 0 33.2821 0 32.3963V7.37744H39.8538Z" fill="#FAF8F8"/>
<path d="M39.8538 8.9811V7.37733L17.7208 6.35107L0 7.37733V8.9811V32.3962C0 33.282 0.718009 34 1.60377 34H2.8066C2.14264 34 1.60377 33.4611 1.60377 32.7971V9.46223C1.60377 9.19649 1.81916 8.9811 2.08491 8.9811H39.8538Z" fill="#F0E9E6"/>
<path d="M39.8538 1.60377V7.41745H0V1.60377C0 0.718009 0.718009 0 1.60377 0H38.25C39.1358 0 39.8538 0.718009 39.8538 1.60377Z" fill="#5D748A"/>
<path d="M18.2636 5.77358C17.6017 5.77358 17.0651 5.23503 17.0651 4.57075C17.0651 3.90647 17.6017 3.36792 18.2636 3.36792H34.9681C35.6301 3.36792 36.1667 3.90647 36.1667 4.57075C36.1667 5.23503 35.6301 5.77358 34.9681 5.77358H18.2636Z" fill="#3F597D"/>
<path d="M12.8999 5.77358C13.5618 5.77358 14.0985 5.23505 14.0985 4.57075C14.0985 3.90645 13.5618 3.36792 12.8999 3.36792C12.2379 3.36792 11.7013 3.90645 11.7013 4.57075C11.7013 5.23505 12.2379 5.77358 12.8999 5.77358Z" fill="#3F597D"/>
<path d="M13.7412 5.42746L14.7736 4.39551L13.72 4.49005L13.7412 5.42746Z" fill="#3F597D"/>
<path d="M12.0758 3.69724L13.0831 2.6936L12.8672 3.52821L12.0758 3.69724Z" fill="#3F597D"/>
<path d="M7.86118 5.77358C8.52314 5.77358 9.05976 5.23505 9.05976 4.57075C9.05976 3.90645 8.52314 3.36792 7.86118 3.36792C7.19922 3.36792 6.6626 3.90645 6.6626 4.57075C6.6626 5.23505 7.19922 5.77358 7.86118 5.77358Z" fill="#3F597D"/>
<path d="M8.70469 5.42513L9.69759 4.42285L8.68127 4.48989L8.70469 5.42513Z" fill="#3F597D"/>
<path d="M7.03711 3.69731L8.02912 2.69824L7.82849 3.52828L7.03711 3.69731Z" fill="#3F597D"/>
<path d="M2.64194 5.77358C3.3039 5.77358 3.84052 5.23505 3.84052 4.57075C3.84052 3.90645 3.3039 3.36792 2.64194 3.36792C1.97998 3.36792 1.44336 3.90645 1.44336 4.57075C1.44336 5.23505 1.97998 5.77358 2.64194 5.77358Z" fill="#3F597D"/>
<path d="M3.50984 5.40039L4.52992 4.34302L3.47632 4.45376L3.50984 5.40039Z" fill="#3F597D"/>
<path d="M1.81787 3.69725L2.74982 2.73193L2.60925 3.52821L1.81787 3.69725Z" fill="#3F597D"/>
<path d="M13.9408 4.7311C14.6027 4.7311 15.1393 4.19257 15.1393 3.52827C15.1393 2.86396 14.6027 2.32544 13.9408 2.32544C13.2788 2.32544 12.7422 2.86396 12.7422 3.52827C12.7422 4.19257 13.2788 4.7311 13.9408 4.7311Z" fill="#B7E546"/>
<path d="M17.4421 3.69481L18.4823 2.65308L18.2397 3.79785L17.4421 3.69481Z" fill="#3F597D"/>
<path d="M35.8307 5.40593L36.8851 4.34912L36.0684 4.62024L35.8307 5.40593Z" fill="#3F597D"/>
<path d="M8.8967 4.7311C9.55866 4.7311 10.0953 4.19257 10.0953 3.52827C10.0953 2.86396 9.55866 2.32544 8.8967 2.32544C8.23474 2.32544 7.69812 2.86396 7.69812 3.52827C7.69812 4.19257 8.23474 4.7311 8.8967 4.7311Z" fill="#FFBF54"/>
<path d="M3.64816 4.7311C4.31012 4.7311 4.84675 4.19257 4.84675 3.52827C4.84675 2.86396 4.31012 2.32544 3.64816 2.32544C2.98621 2.32544 2.44958 2.86396 2.44958 3.52827C2.44958 4.19257 2.98621 4.7311 3.64816 4.7311Z" fill="#DC4955"/>
<path d="M19.3044 4.7311C18.6425 4.7311 18.1058 4.19255 18.1058 3.52827C18.1058 2.86399 18.6425 2.32544 19.3044 2.32544H36.0089C36.6709 2.32544 37.2075 2.86399 37.2075 3.52827C37.2075 4.19255 36.6709 4.7311 36.0089 4.7311H19.3044Z" fill="#FAF8F8"/>
<path d="M31.6446 13H9.35538C8.60796 13 8 13.5869 8 14.3081V26.6919C8 27.4132 8.60796 28 9.35538 28H31.6446C32.392 28 33 27.4132 33 26.6919V14.3081C33 13.5868 32.392 13 31.6446 13Z" fill="#CC4444"/>
<path d="M9.01811 26.6919V14.3081C9.01811 13.5868 9.45858 13 10 13H8.98189C8.44043 13 8 13.5869 8 14.3081V26.6919C8 27.4132 8.44043 28 8.98189 28H10C9.45858 28 9.01811 27.4132 9.01811 26.6919Z" fill="#B53C3C"/>
<path d="M32 26.3836C32 26.724 31.7198 27 31.3743 27H9.62572C9.28016 27 9 26.724 9 26.3836V14.6164C9 14.276 9.28016 14 9.62572 14H31.3743C31.7198 14 32 14.276 32 14.6164V26.3836Z" fill="#F95C4B"/>
<path d="M10.7711 26.9318V15.0682C10.7711 14.725 11.0542 14.4468 11.4033 14.4468H10.1038C9.75462 14.4468 9.47156 14.725 9.47156 15.0682V26.9318C9.47156 27.275 9.75462 27.5532 10.1038 27.5532H11.4033C11.0541 27.5532 10.7711 27.275 10.7711 26.9318Z" fill="#F44B34"/>
<path d="M15.7832 21.8029H13.5416V21.0141H15.3643C15.4841 21.0141 15.5811 20.9276 15.5811 20.821V20.1912C15.5811 20.0845 15.4841 19.998 15.3643 19.998H13.5416V19.1972H15.7121C15.8319 19.1972 15.9289 19.1108 15.9289 19.0041V18.1932C15.9289 18.0865 15.8319 18 15.7121 18H12.217C12.0972 18 12.0001 18.0865 12.0001 18.1932V22.8068C12.0001 22.9135 12.0972 23 12.217 23H15.7833C15.903 23 16.0001 22.9135 16.0001 22.8068V21.9959C16.0001 21.8893 15.903 21.8029 15.7832 21.8029Z" fill="#F5F5F5"/>
<path d="M20.8266 18H19.9201C19.858 18 19.8007 18.0369 19.7696 18.0967L19.0034 19.5774L18.2371 18.0967C18.2062 18.0368 18.1488 18 18.0867 18H17.1739C17.0363 18 16.9529 18.1709 17.0289 18.2993L18.3516 20.5352L17.0782 22.7011C17.0433 22.7605 17.0404 22.8363 17.0707 22.8987C17.101 22.9611 17.1596 23 17.2234 23H18.1364C18.1989 23 18.2566 22.9625 18.2874 22.9019L19.0034 21.493L19.7193 22.9019C19.7501 22.9625 19.8078 23 19.8704 23H20.777C20.8408 23 20.8994 22.9611 20.9297 22.8987C20.96 22.8363 20.9571 22.7604 20.9222 22.7011L19.6488 20.5352L20.9715 18.2993C21.0066 18.24 21.0096 18.1641 20.9793 18.1015C20.9491 18.039 20.8904 18 20.8266 18Z" fill="#F5F5F5"/>
<path d="M23.7188 18H22.2814C22.1261 18 22.0001 18.0865 22.0001 18.1932V22.8068C22.0001 22.9135 22.1261 23 22.2814 23H23.7188C23.8742 23 24.0001 22.9135 24.0001 22.8068V18.1932C24.0001 18.0865 23.8741 18 23.7188 18Z" fill="#F5F5F5"/>
<path d="M28.8184 18H25.1818C25.0814 18 25.0001 18.0865 25.0001 18.1932V19.0041C25.0001 19.1107 25.0814 19.1972 25.1818 19.1972H26.3577V22.8068C26.3577 22.9135 26.439 23 26.5393 23H27.4675C27.5678 23 27.6491 22.9135 27.6491 22.8068V19.1972H28.8185C28.9188 19.1972 29.0001 19.1107 29.0001 19.004V18.1931C29.0001 18.0865 28.9188 18 28.8184 18Z" fill="#F5F5F5"/>
</svg>
