<svg width="32" height="32" viewBox="0 0 32 32" fill="none" xmlns="http://www.w3.org/2000/svg">
<path d="M16 32C24.8366 32 32 24.8366 32 16C32 7.16344 24.8366 0 16 0C7.16344 0 0 7.16344 0 16C0 24.8366 7.16344 32 16 32Z" fill="url(#paint0_linear)"/>
<path d="M20.4766 7.96238L15.7338 12.5457L10.9909 7.96224C9.75788 6.77082 8.16898 6.90292 6.93596 8.09435C5.70294 9.2859 5.83964 10.9535 7.07266 12.145L11.6789 16.5964L7.07266 20.9156C5.83964 22.1072 5.56638 23.9068 6.7994 25.0982L13.8485 31.8943C14.4672 31.9633 15.0961 32 15.7338 32C24.7174 32 32 24.9623 32 16.2808C32 15.7983 31.9762 15.3213 31.9323 14.8499L24.6683 7.83015C23.4352 6.63885 21.7096 6.77095 20.4766 7.96238V7.96238Z" fill="url(#paint1_linear)"/>
<path d="M19.8022 16.5L24.1089 12.1933C25.297 11.0051 25.297 9.07909 24.1089 7.89098C22.9208 6.70301 20.9948 6.70301 19.8067 7.89098L15.5 12.1977L11.1933 7.89098C10.0052 6.70301 8.07917 6.70301 6.89107 7.89098C5.70298 9.07909 5.70298 11.0051 6.89107 12.1933L11.1978 16.5L6.89107 20.8067C5.70298 21.9949 5.70298 23.9209 6.89107 25.109C7.48505 25.703 8.26365 26 9.04212 26C9.82059 26 10.5992 25.703 11.1932 25.109L15.5 20.8023L19.8067 25.109C20.4007 25.703 21.1793 26 21.9579 26C22.7365 26 23.5149 25.703 24.1089 25.109C25.297 23.9209 25.297 21.9949 24.1089 20.8067L19.8022 16.5Z" fill="url(#paint2_linear)"/>
<defs>
<linearGradient id="paint0_linear" x1="8.55813" y1="8.55813" x2="23.98" y2="23.9798" gradientUnits="userSpaceOnUse">
<stop stop-color="#FF637B"/>
<stop offset="1" stop-color="#E63950"/>
</linearGradient>
<linearGradient id="paint1_linear" x1="26.6316" y1="26.9956" x2="15.4047" y2="15.3779" gradientUnits="userSpaceOnUse">
<stop stop-color="#E63950" stop-opacity="0"/>
<stop offset="0.0467" stop-color="#E4354B" stop-opacity="0.047"/>
<stop offset="0.4669" stop-color="#D31822" stop-opacity="0.467"/>
<stop offset="0.7991" stop-color="#C90709" stop-opacity="0.799"/>
<stop offset="1" stop-color="#C50000"/>
</linearGradient>
<linearGradient id="paint2_linear" x1="11.9269" y1="12.9269" x2="18.5538" y2="19.5537" gradientUnits="userSpaceOnUse">
<stop stop-color="#EDF5FF"/>
<stop offset="1" stop-color="#D5E8FE"/>
</linearGradient>
</defs>
</svg>
