<svg width="40" height="34" viewBox="0 0 40 34" fill="none" xmlns="http://www.w3.org/2000/svg">
<path d="M39.8538 7.37744V32.3963C39.8538 33.2821 39.1358 34.0001 38.25 34.0001H1.60377C0.718009 34.0001 0 33.2821 0 32.3963V7.37744H39.8538Z" fill="#FAF8F8"/>
<path d="M39.8538 8.9811V7.37733L17.7208 6.35107L0 7.37733V8.9811V32.3962C0 33.282 0.718009 34 1.60377 34H2.8066C2.14264 34 1.60377 33.4611 1.60377 32.7971V9.46223C1.60377 9.19649 1.81916 8.9811 2.08491 8.9811H39.8538Z" fill="#F0E9E6"/>
<path d="M39.8538 1.60377V7.41745H0V1.60377C0 0.718009 0.718009 0 1.60377 0H38.25C39.1358 0 39.8538 0.718009 39.8538 1.60377Z" fill="#5D748A"/>
<path d="M18.2636 5.77358C17.6017 5.77358 17.0651 5.23503 17.0651 4.57075C17.0651 3.90647 17.6017 3.36792 18.2636 3.36792H34.9681C35.6301 3.36792 36.1667 3.90647 36.1667 4.57075C36.1667 5.23503 35.6301 5.77358 34.9681 5.77358H18.2636Z" fill="#3F597D"/>
<path d="M12.8999 5.77358C13.5618 5.77358 14.0985 5.23505 14.0985 4.57075C14.0985 3.90645 13.5618 3.36792 12.8999 3.36792C12.2379 3.36792 11.7013 3.90645 11.7013 4.57075C11.7013 5.23505 12.2379 5.77358 12.8999 5.77358Z" fill="#3F597D"/>
<path d="M13.7412 5.42746L14.7736 4.39551L13.72 4.49005L13.7412 5.42746Z" fill="#3F597D"/>
<path d="M12.0758 3.69724L13.0831 2.6936L12.8672 3.52821L12.0758 3.69724Z" fill="#3F597D"/>
<path d="M7.86118 5.77358C8.52314 5.77358 9.05976 5.23505 9.05976 4.57075C9.05976 3.90645 8.52314 3.36792 7.86118 3.36792C7.19922 3.36792 6.6626 3.90645 6.6626 4.57075C6.6626 5.23505 7.19922 5.77358 7.86118 5.77358Z" fill="#3F597D"/>
<path d="M8.70469 5.42513L9.69759 4.42285L8.68127 4.48989L8.70469 5.42513Z" fill="#3F597D"/>
<path d="M7.03711 3.69731L8.02912 2.69824L7.82849 3.52828L7.03711 3.69731Z" fill="#3F597D"/>
<path d="M2.64194 5.77358C3.3039 5.77358 3.84052 5.23505 3.84052 4.57075C3.84052 3.90645 3.3039 3.36792 2.64194 3.36792C1.97998 3.36792 1.44336 3.90645 1.44336 4.57075C1.44336 5.23505 1.97998 5.77358 2.64194 5.77358Z" fill="#3F597D"/>
<path d="M3.50984 5.40039L4.52992 4.34302L3.47632 4.45376L3.50984 5.40039Z" fill="#3F597D"/>
<path d="M1.81787 3.69725L2.74982 2.73193L2.60925 3.52821L1.81787 3.69725Z" fill="#3F597D"/>
<path d="M13.9408 4.7311C14.6027 4.7311 15.1393 4.19257 15.1393 3.52827C15.1393 2.86396 14.6027 2.32544 13.9408 2.32544C13.2788 2.32544 12.7422 2.86396 12.7422 3.52827C12.7422 4.19257 13.2788 4.7311 13.9408 4.7311Z" fill="#B7E546"/>
<path d="M17.4421 3.69481L18.4823 2.65308L18.2397 3.79785L17.4421 3.69481Z" fill="#3F597D"/>
<path d="M35.8307 5.40593L36.8851 4.34912L36.0684 4.62024L35.8307 5.40593Z" fill="#3F597D"/>
<path d="M8.8967 4.7311C9.55866 4.7311 10.0953 4.19257 10.0953 3.52827C10.0953 2.86396 9.55866 2.32544 8.8967 2.32544C8.23474 2.32544 7.69812 2.86396 7.69812 3.52827C7.69812 4.19257 8.23474 4.7311 8.8967 4.7311Z" fill="#FFBF54"/>
<path d="M3.64816 4.7311C4.31012 4.7311 4.84675 4.19257 4.84675 3.52827C4.84675 2.86396 4.31012 2.32544 3.64816 2.32544C2.98621 2.32544 2.44958 2.86396 2.44958 3.52827C2.44958 4.19257 2.98621 4.7311 3.64816 4.7311Z" fill="#DC4955"/>
<path d="M19.3044 4.7311C18.6425 4.7311 18.1058 4.19255 18.1058 3.52827C18.1058 2.86399 18.6425 2.32544 19.3044 2.32544H36.0089C36.6709 2.32544 37.2075 2.86399 37.2075 3.52827C37.2075 4.19255 36.6709 4.7311 36.0089 4.7311H19.3044Z" fill="#FAF8F8"/>
<path d="M29.524 29H10.8395C10.3759 29 10 28.5676 10 28.0343V13.9657C10 13.4324 10.3759 13 10.8395 13H29.5242C29.9878 13 30.3636 13.4324 30.3636 13.9657V28.0343C30.3635 28.5676 29.9877 29 29.524 29Z" fill="#DA4A54"/>
<path d="M29.4816 13H27.4546C27.9417 13 28.3366 13.4324 28.3366 13.9657V28.0343C28.3366 28.5676 27.9417 29 27.4546 29H29.4816C29.9688 29 30.3637 28.5676 30.3637 28.0343V13.9657C30.3637 13.4324 29.9688 13 29.4816 13Z" fill="#D82E3D"/>
<path d="M22.8273 20.6087L19.7594 18.9137C19.3316 18.6773 18.7273 18.9064 18.7273 19.3049V22.6949C18.7273 23.0934 19.3317 23.3226 19.7594 23.0862L22.8273 21.3911C23.1788 21.197 23.1788 20.8029 22.8273 20.6087Z" fill="#F9F6F9"/>
</svg>
