<svg width="40" height="34" viewBox="0 0 40 34" fill="none" xmlns="http://www.w3.org/2000/svg">
<path d="M39.8538 7.37744V32.3963C39.8538 33.2821 39.1358 34.0001 38.25 34.0001H1.60377C0.718009 34.0001 0 33.2821 0 32.3963V7.37744H39.8538Z" fill="#FAF8F8"/>
<path d="M23.2949 20.6887C23.2949 18.8287 21.787 17.3208 19.927 17.3208C19.3632 17.3208 18.8317 17.4594 18.3647 17.7043C17.2913 18.2673 16.8149 19.3925 16.8149 20.6887C16.8149 22.5488 18.0669 23.6122 19.927 23.6122C21.2272 23.6122 22.3553 23.3199 22.9166 22.241C23.1583 21.7766 23.2949 21.2486 23.2949 20.6887Z" fill="#DC4955"/>
<path d="M22.9718 22.1298C22.4321 23.2693 21.2718 24.0567 19.927 24.0567C18.0666 24.0567 16.5591 22.5492 16.5591 20.6888C16.5591 19.344 17.3465 18.1837 18.486 17.644C18.2783 18.0811 18.1629 18.5694 18.1629 19.085C18.1629 20.9454 19.6704 22.453 21.5308 22.453C22.0464 22.453 22.5347 22.3375 22.9718 22.1298Z" fill="#D82F3C"/>
<path d="M34.4408 20.6887C34.4408 18.8287 32.9329 17.3208 31.0729 17.3208C30.5091 17.3208 29.9776 17.4594 29.5106 17.7043C28.4372 18.2673 27.9608 19.3925 27.9608 20.6887C27.9608 22.5488 29.2128 23.6122 31.0729 23.6122C32.373 23.6122 33.5011 23.3199 34.0625 22.241C34.3041 21.7766 34.4408 21.2486 34.4408 20.6887Z" fill="#B7E546"/>
<path d="M34.1176 22.1298C33.578 23.2693 32.4176 24.0567 31.0729 24.0567C29.2125 24.0567 27.705 22.5492 27.705 20.6888C27.705 19.344 28.4924 18.1837 29.6319 17.644C29.4242 18.0811 29.3087 18.5694 29.3087 19.085C29.3087 20.9454 30.8163 22.453 32.6767 22.453C33.1923 22.453 33.6806 22.3375 34.1176 22.1298Z" fill="#ABD641"/>
<path d="M39.8538 8.9811V7.37733L17.7208 6.35107L0 7.37733V8.9811V32.3962C0 33.282 0.718009 34 1.60377 34H2.8066C2.14264 34 1.60377 33.4611 1.60377 32.7971V9.46223C1.60377 9.19649 1.81916 8.9811 2.08491 8.9811H39.8538Z" fill="#F0E9E6"/>
<path d="M39.8538 1.60377V7.41745H0V1.60377C0 0.718009 0.718009 0 1.60377 0H38.25C39.1358 0 39.8538 0.718009 39.8538 1.60377Z" fill="#5D748A"/>
<path d="M18.2636 5.77358C17.6017 5.77358 17.0651 5.23503 17.0651 4.57075C17.0651 3.90647 17.6017 3.36792 18.2636 3.36792H34.9681C35.6301 3.36792 36.1667 3.90647 36.1667 4.57075C36.1667 5.23503 35.6301 5.77358 34.9681 5.77358H18.2636Z" fill="#3F597D"/>
<path d="M12.8999 5.77358C13.5618 5.77358 14.0985 5.23505 14.0985 4.57075C14.0985 3.90645 13.5618 3.36792 12.8999 3.36792C12.2379 3.36792 11.7013 3.90645 11.7013 4.57075C11.7013 5.23505 12.2379 5.77358 12.8999 5.77358Z" fill="#3F597D"/>
<path d="M13.7412 5.42746L14.7736 4.39551L13.72 4.49005L13.7412 5.42746Z" fill="#3F597D"/>
<path d="M12.0758 3.69724L13.0831 2.6936L12.8672 3.52821L12.0758 3.69724Z" fill="#3F597D"/>
<path d="M7.86118 5.77358C8.52314 5.77358 9.05976 5.23505 9.05976 4.57075C9.05976 3.90645 8.52314 3.36792 7.86118 3.36792C7.19922 3.36792 6.6626 3.90645 6.6626 4.57075C6.6626 5.23505 7.19922 5.77358 7.86118 5.77358Z" fill="#3F597D"/>
<path d="M8.70469 5.42513L9.69759 4.42285L8.68127 4.48989L8.70469 5.42513Z" fill="#3F597D"/>
<path d="M7.03711 3.69731L8.02912 2.69824L7.82849 3.52828L7.03711 3.69731Z" fill="#3F597D"/>
<path d="M2.64194 5.77358C3.3039 5.77358 3.84052 5.23505 3.84052 4.57075C3.84052 3.90645 3.3039 3.36792 2.64194 3.36792C1.97998 3.36792 1.44336 3.90645 1.44336 4.57075C1.44336 5.23505 1.97998 5.77358 2.64194 5.77358Z" fill="#3F597D"/>
<path d="M3.50984 5.40039L4.52992 4.34302L3.47632 4.45376L3.50984 5.40039Z" fill="#3F597D"/>
<path d="M1.81787 3.69725L2.74982 2.73193L2.60925 3.52821L1.81787 3.69725Z" fill="#3F597D"/>
<path d="M13.9408 4.7311C14.6027 4.7311 15.1393 4.19257 15.1393 3.52827C15.1393 2.86396 14.6027 2.32544 13.9408 2.32544C13.2788 2.32544 12.7422 2.86396 12.7422 3.52827C12.7422 4.19257 13.2788 4.7311 13.9408 4.7311Z" fill="#B7E546"/>
<path d="M17.4421 3.69481L18.4823 2.65308L18.2397 3.79785L17.4421 3.69481Z" fill="#3F597D"/>
<path d="M35.8307 5.40593L36.8851 4.34912L36.0684 4.62024L35.8307 5.40593Z" fill="#3F597D"/>
<path d="M8.8967 4.7311C9.55866 4.7311 10.0953 4.19257 10.0953 3.52827C10.0953 2.86396 9.55866 2.32544 8.8967 2.32544C8.23474 2.32544 7.69812 2.86396 7.69812 3.52827C7.69812 4.19257 8.23474 4.7311 8.8967 4.7311Z" fill="#FFBF54"/>
<path d="M3.64816 4.7311C4.31012 4.7311 4.84675 4.19257 4.84675 3.52827C4.84675 2.86396 4.31012 2.32544 3.64816 2.32544C2.98621 2.32544 2.44958 2.86396 2.44958 3.52827C2.44958 4.19257 2.98621 4.7311 3.64816 4.7311Z" fill="#DC4955"/>
<path d="M19.3044 4.7311C18.6425 4.7311 18.1058 4.19255 18.1058 3.52827C18.1058 2.86399 18.6425 2.32544 19.3044 2.32544H36.0089C36.6709 2.32544 37.2075 2.86399 37.2075 3.52827C37.2075 4.19255 36.6709 4.7311 36.0089 4.7311H19.3044Z" fill="#FAF8F8"/>
<path d="M10.897 14.3137L29.07 14.4741C29.5129 14.4741 29.8719 14.1151 29.8719 13.6722L30.1508 13.1109V10.7052C30.1508 10.2623 29.7918 9.90332 29.349 9.90332H11.3867L10.897 10.3043C10.4541 10.3043 10.0951 10.6633 10.0951 11.1062V13.5118C10.0951 13.9547 10.4541 14.3137 10.897 14.3137Z" fill="#AAD8DE"/>
<path d="M30.1509 13.1109V13.9128C30.1509 14.3556 29.7919 14.7146 29.349 14.7146H10.5848C10.142 14.7146 9.78296 14.3556 9.78296 13.9128V10.7052C9.78296 10.2623 10.142 9.90332 10.5848 9.90332H11.3867V12.5495C11.3867 12.8596 11.638 13.1109 11.9481 13.1109H30.1509Z" fill="#94CCD4"/>
<path d="M12.1487 20.6887C12.1487 18.8287 10.6408 17.3208 8.78074 17.3208C8.21694 17.3208 7.68545 17.4594 7.21851 17.7043C6.1451 18.2673 5.6687 19.3925 5.6687 20.6887C5.6687 22.5488 6.92069 23.6122 8.78074 23.6122C10.0809 23.6122 11.209 23.3199 11.7703 22.241C12.012 21.7766 12.1487 21.2486 12.1487 20.6887Z" fill="#FFBF54"/>
<path d="M11.8255 22.1298C11.2859 23.2693 10.1255 24.0567 8.78077 24.0567C6.92039 24.0567 5.41284 22.5492 5.41284 20.6888C5.41284 19.344 6.20029 18.1837 7.33978 17.644C7.13209 18.0811 7.01662 18.5694 7.01662 19.085C7.01662 20.9454 8.52416 22.453 10.3845 22.453C10.9002 22.453 11.3885 22.3375 11.8255 22.1298Z" fill="#FFA442"/>
<path d="M11.9882 27.0637H6.37497C6.04283 27.0637 5.77356 26.7944 5.77356 26.4623C5.77356 26.1301 6.04283 25.8608 6.37497 25.8608H11.9882C12.3203 25.8608 12.5896 26.1301 12.5896 26.4623C12.5896 26.7944 12.3203 27.0637 11.9882 27.0637Z" fill="#F0E9E6"/>
<path d="M11.9882 29.4694H5.57309C5.24095 29.4694 4.97168 29.2002 4.97168 28.868C4.97168 28.5359 5.24095 28.2666 5.57309 28.2666H11.9882C12.3203 28.2666 12.5896 28.5359 12.5896 28.868C12.5896 29.2002 12.3203 29.4694 11.9882 29.4694Z" fill="#F0E9E6"/>
<path d="M11.9882 31.8749H5.57309C5.24095 31.8749 4.97168 31.6057 4.97168 31.2735C4.97168 30.9414 5.24095 30.6721 5.57309 30.6721H11.9882C12.3203 30.6721 12.5896 30.9414 12.5896 31.2735C12.5896 31.6057 12.3203 31.8749 11.9882 31.8749Z" fill="#F0E9E6"/>
<path d="M23.1343 27.0637H17.5211C17.189 27.0637 16.9197 26.7944 16.9197 26.4623C16.9197 26.1301 17.189 25.8608 17.5211 25.8608H23.1343C23.4665 25.8608 23.7357 26.1301 23.7357 26.4623C23.7357 26.7944 23.4665 27.0637 23.1343 27.0637Z" fill="#F0E9E6"/>
<path d="M23.1343 29.4694H16.7192C16.3871 29.4694 16.1178 29.2002 16.1178 28.868C16.1178 28.5359 16.3871 28.2666 16.7192 28.2666H23.1343C23.4665 28.2666 23.7357 28.5359 23.7357 28.868C23.7357 29.2002 23.4665 29.4694 23.1343 29.4694Z" fill="#F0E9E6"/>
<path d="M23.1343 31.8749H16.7192C16.3871 31.8749 16.1178 31.6057 16.1178 31.2735C16.1178 30.9414 16.3871 30.6721 16.7192 30.6721H23.1343C23.4665 30.6721 23.7357 30.9414 23.7357 31.2735C23.7357 31.6057 23.4665 31.8749 23.1343 31.8749Z" fill="#F0E9E6"/>
<path d="M34.2807 27.0637H28.6675C28.3352 27.0637 28.066 26.7944 28.066 26.4623C28.066 26.1301 28.3352 25.8608 28.6675 25.8608H34.2807C34.6129 25.8608 34.8821 26.1301 34.8821 26.4623C34.8821 26.7944 34.6129 27.0637 34.2807 27.0637Z" fill="#F0E9E6"/>
<path d="M34.2807 29.4694H27.8656C27.5334 29.4694 27.2642 29.2002 27.2642 28.868C27.2642 28.5359 27.5334 28.2666 27.8656 28.2666H34.2807C34.6129 28.2666 34.8821 28.5359 34.8821 28.868C34.8821 29.2002 34.6129 29.4694 34.2807 29.4694Z" fill="#F0E9E6"/>
<path d="M34.2807 31.8749H27.8656C27.5334 31.8749 27.2642 31.6057 27.2642 31.2735C27.2642 30.9414 27.5334 30.6721 27.8656 30.6721H34.2807C34.6129 30.6721 34.8821 30.9414 34.8821 31.2735C34.8821 31.6057 34.6129 31.8749 34.2807 31.8749Z" fill="#F0E9E6"/>
</svg>
