<svg width="40" height="34" viewBox="0 0 40 34" fill="none" xmlns="http://www.w3.org/2000/svg">
<path d="M39.8538 7.37744V32.3963C39.8538 33.2821 39.1358 34.0001 38.25 34.0001H1.60377C0.718009 34.0001 0 33.2821 0 32.3963V7.37744H39.8538Z" fill="#FAF8F8"/>
<path d="M39.8538 8.9811V7.37733L17.7208 6.35107L0 7.37733V8.9811V32.3962C0 33.282 0.718009 34 1.60377 34H2.8066C2.14264 34 1.60377 33.4611 1.60377 32.7971V9.46223C1.60377 9.19649 1.81916 8.9811 2.08491 8.9811H39.8538Z" fill="#F0E9E6"/>
<path d="M39.8538 1.60377V7.41745H0V1.60377C0 0.718009 0.718009 0 1.60377 0H38.25C39.1358 0 39.8538 0.718009 39.8538 1.60377Z" fill="#5D748A"/>
<path d="M18.2636 5.77358C17.6017 5.77358 17.0651 5.23503 17.0651 4.57075C17.0651 3.90647 17.6017 3.36792 18.2636 3.36792H34.9681C35.6301 3.36792 36.1667 3.90647 36.1667 4.57075C36.1667 5.23503 35.6301 5.77358 34.9681 5.77358H18.2636Z" fill="#3F597D"/>
<path d="M12.8999 5.77358C13.5618 5.77358 14.0985 5.23505 14.0985 4.57075C14.0985 3.90645 13.5618 3.36792 12.8999 3.36792C12.2379 3.36792 11.7013 3.90645 11.7013 4.57075C11.7013 5.23505 12.2379 5.77358 12.8999 5.77358Z" fill="#3F597D"/>
<path d="M13.7412 5.42746L14.7736 4.39551L13.72 4.49005L13.7412 5.42746Z" fill="#3F597D"/>
<path d="M12.0758 3.69724L13.0831 2.6936L12.8672 3.52821L12.0758 3.69724Z" fill="#3F597D"/>
<path d="M7.86118 5.77358C8.52314 5.77358 9.05976 5.23505 9.05976 4.57075C9.05976 3.90645 8.52314 3.36792 7.86118 3.36792C7.19922 3.36792 6.6626 3.90645 6.6626 4.57075C6.6626 5.23505 7.19922 5.77358 7.86118 5.77358Z" fill="#3F597D"/>
<path d="M8.70469 5.42513L9.69759 4.42285L8.68127 4.48989L8.70469 5.42513Z" fill="#3F597D"/>
<path d="M7.03711 3.69731L8.02912 2.69824L7.82849 3.52828L7.03711 3.69731Z" fill="#3F597D"/>
<path d="M2.64194 5.77358C3.3039 5.77358 3.84052 5.23505 3.84052 4.57075C3.84052 3.90645 3.3039 3.36792 2.64194 3.36792C1.97998 3.36792 1.44336 3.90645 1.44336 4.57075C1.44336 5.23505 1.97998 5.77358 2.64194 5.77358Z" fill="#3F597D"/>
<path d="M3.50984 5.40039L4.52992 4.34302L3.47632 4.45376L3.50984 5.40039Z" fill="#3F597D"/>
<path d="M1.81787 3.69725L2.74982 2.73193L2.60925 3.52821L1.81787 3.69725Z" fill="#3F597D"/>
<path d="M13.9408 4.7311C14.6027 4.7311 15.1393 4.19257 15.1393 3.52827C15.1393 2.86396 14.6027 2.32544 13.9408 2.32544C13.2788 2.32544 12.7422 2.86396 12.7422 3.52827C12.7422 4.19257 13.2788 4.7311 13.9408 4.7311Z" fill="#B7E546"/>
<path d="M17.4421 3.69481L18.4823 2.65308L18.2397 3.79785L17.4421 3.69481Z" fill="#3F597D"/>
<path d="M35.8307 5.40593L36.8851 4.34912L36.0684 4.62024L35.8307 5.40593Z" fill="#3F597D"/>
<path d="M8.8967 4.7311C9.55866 4.7311 10.0953 4.19257 10.0953 3.52827C10.0953 2.86396 9.55866 2.32544 8.8967 2.32544C8.23474 2.32544 7.69812 2.86396 7.69812 3.52827C7.69812 4.19257 8.23474 4.7311 8.8967 4.7311Z" fill="#FFBF54"/>
<path d="M3.64816 4.7311C4.31012 4.7311 4.84675 4.19257 4.84675 3.52827C4.84675 2.86396 4.31012 2.32544 3.64816 2.32544C2.98621 2.32544 2.44958 2.86396 2.44958 3.52827C2.44958 4.19257 2.98621 4.7311 3.64816 4.7311Z" fill="#DC4955"/>
<path d="M19.3044 4.7311C18.6425 4.7311 18.1058 4.19255 18.1058 3.52827C18.1058 2.86399 18.6425 2.32544 19.3044 2.32544H36.0089C36.6709 2.32544 37.2075 2.86399 37.2075 3.52827C37.2075 4.19255 36.6709 4.7311 36.0089 4.7311H19.3044Z" fill="#FAF8F8"/>
<path d="M26.0395 28.7101V15.0344L23.6916 13H13.2941C13.1317 13 13 13.1298 13 13.2898V28.71C13 28.8701 13.1317 28.9999 13.2941 28.9999H25.7454C25.9079 28.9999 26.0395 28.8701 26.0395 28.7101Z" fill="#FFF5F5"/>
<path d="M26.0395 15.0346V28.7102C26.0395 28.8703 25.9079 29.0001 25.7454 29.0001H24.6565C24.8237 29.0001 24.9592 28.8666 24.9592 28.7018V14.0986L26.0395 15.0346Z" fill="#EFE2DD"/>
<path d="M26.0397 15.0344L23.6918 13V14.6301C23.6918 14.8534 23.8754 15.0344 24.1021 15.0344H26.0397Z" fill="#B9ACAC"/>
<path d="M20.1165 22.8679H14.8224C14.6701 22.8679 14.5466 22.7463 14.5466 22.5962C14.5466 22.4461 14.6701 22.3245 14.8224 22.3245H20.1165C20.2688 22.3245 20.3922 22.4461 20.3922 22.5962C20.3922 22.7463 20.2688 22.8679 20.1165 22.8679Z" fill="#678D98"/>
<path d="M24.2167 22.8679H21.5697C21.4174 22.8679 21.2939 22.7463 21.2939 22.5962C21.2939 22.4461 21.4174 22.3245 21.5697 22.3245H24.2167C24.369 22.3245 24.4925 22.4461 24.4925 22.5962C24.4925 22.7463 24.3691 22.8679 24.2167 22.8679Z" fill="#678D98"/>
<path d="M20.1165 24.3296H14.8224C14.6701 24.3296 14.5466 24.2079 14.5466 24.0579C14.5466 23.9078 14.6701 23.7861 14.8224 23.7861H20.1165C20.2688 23.7861 20.3922 23.9078 20.3922 24.0579C20.3922 24.2079 20.2688 24.3296 20.1165 24.3296Z" fill="#678D98"/>
<path d="M23.3652 24.3296H21.57C21.4178 24.3296 21.2943 24.2079 21.2943 24.0579C21.2943 23.9078 21.4178 23.7861 21.57 23.7861H23.3652C23.5174 23.7861 23.6409 23.9078 23.6409 24.0579C23.6409 24.2079 23.5174 24.3296 23.3652 24.3296Z" fill="#678D98"/>
<path d="M20.1165 25.791H14.8224C14.6701 25.791 14.5466 25.6694 14.5466 25.5193C14.5466 25.3692 14.6701 25.2476 14.8224 25.2476H20.1165C20.2688 25.2476 20.3922 25.3692 20.3922 25.5193C20.3922 25.6694 20.2688 25.791 20.1165 25.791Z" fill="#678D98"/>
<path d="M22.9655 25.791H21.57C21.4178 25.791 21.2943 25.6694 21.2943 25.5193C21.2943 25.3692 21.4178 25.2476 21.57 25.2476H22.9655C23.1178 25.2476 23.2412 25.3692 23.2412 25.5193C23.2412 25.6694 23.1178 25.791 22.9655 25.791Z" fill="#678D98"/>
<path d="M20.1165 27.2524H14.8224C14.6701 27.2524 14.5466 27.1308 14.5466 26.9807C14.5466 26.8306 14.6701 26.709 14.8224 26.709H20.1165C20.2688 26.709 20.3922 26.8306 20.3922 26.9807C20.3922 27.1308 20.2688 27.2524 20.1165 27.2524Z" fill="#678D98"/>
<path d="M22.9655 27.2524H21.57C21.4178 27.2524 21.2943 27.1308 21.2943 26.9807C21.2943 26.8306 21.4178 26.709 21.57 26.709H22.9655C23.1178 26.709 23.2412 26.8306 23.2412 26.9807C23.2412 27.1308 23.1178 27.2524 22.9655 27.2524Z" fill="#678D98"/>
<path d="M18.5313 20.2292H15.1172C14.7476 20.2292 14.448 19.9962 14.448 19.7088V16.4164C14.448 16.129 14.7476 15.896 15.1172 15.896H18.5313C18.9009 15.896 19.2005 16.129 19.2005 16.4164V19.7088C19.2005 19.9962 18.9009 20.2292 18.5313 20.2292Z" fill="#BED8FB"/>
<path d="M16.8081 18.8003C16.158 18.8003 15.6046 19.2541 15.3964 19.8887C15.4442 20.0736 15.5989 20.2091 15.7827 20.2091H17.8335C18.0174 20.2091 18.172 20.0736 18.2199 19.8887C18.0117 19.2541 17.4583 18.8003 16.8081 18.8003Z" fill="#4A80AA"/>
<path d="M16.8081 18.8003C17.3279 18.8003 17.7493 18.3798 17.7493 17.8611C17.7493 17.3424 17.3279 16.9219 16.8081 16.9219C16.2883 16.9219 15.8669 17.3424 15.8669 17.8611C15.8669 18.3798 16.2883 18.8003 16.8081 18.8003Z" fill="#365E7D"/>
</svg>
