<svg width="40" height="34" viewBox="0 0 40 34" fill="none" xmlns="http://www.w3.org/2000/svg">
<path d="M39.8538 7.37744V32.3963C39.8538 33.2821 39.1358 34.0001 38.25 34.0001H1.60377C0.718009 34.0001 0 33.2821 0 32.3963V7.37744H39.8538Z" fill="#FAF8F8"/>
<path d="M39.8538 8.9811V7.37733L17.7208 6.35107L0 7.37733V8.9811V32.3962C0 33.282 0.718009 34 1.60377 34H2.8066C2.14264 34 1.60377 33.4611 1.60377 32.7971V9.46223C1.60377 9.19649 1.81916 8.9811 2.08491 8.9811H39.8538Z" fill="#F0E9E6"/>
<path d="M39.8538 1.60377V7.41745H0V1.60377C0 0.718009 0.718009 0 1.60377 0H38.25C39.1358 0 39.8538 0.718009 39.8538 1.60377Z" fill="#5D748A"/>
<path d="M18.2636 5.77358C17.6017 5.77358 17.0651 5.23503 17.0651 4.57075C17.0651 3.90647 17.6017 3.36792 18.2636 3.36792H34.9681C35.6301 3.36792 36.1667 3.90647 36.1667 4.57075C36.1667 5.23503 35.6301 5.77358 34.9681 5.77358H18.2636Z" fill="#3F597D"/>
<path d="M12.8999 5.77358C13.5618 5.77358 14.0985 5.23505 14.0985 4.57075C14.0985 3.90645 13.5618 3.36792 12.8999 3.36792C12.2379 3.36792 11.7013 3.90645 11.7013 4.57075C11.7013 5.23505 12.2379 5.77358 12.8999 5.77358Z" fill="#3F597D"/>
<path d="M13.7412 5.42746L14.7736 4.39551L13.72 4.49005L13.7412 5.42746Z" fill="#3F597D"/>
<path d="M12.0758 3.69724L13.0831 2.6936L12.8672 3.52821L12.0758 3.69724Z" fill="#3F597D"/>
<path d="M7.86118 5.77358C8.52314 5.77358 9.05976 5.23505 9.05976 4.57075C9.05976 3.90645 8.52314 3.36792 7.86118 3.36792C7.19922 3.36792 6.6626 3.90645 6.6626 4.57075C6.6626 5.23505 7.19922 5.77358 7.86118 5.77358Z" fill="#3F597D"/>
<path d="M8.70469 5.42513L9.69759 4.42285L8.68127 4.48989L8.70469 5.42513Z" fill="#3F597D"/>
<path d="M7.03711 3.69731L8.02912 2.69824L7.82849 3.52828L7.03711 3.69731Z" fill="#3F597D"/>
<path d="M2.64194 5.77358C3.3039 5.77358 3.84052 5.23505 3.84052 4.57075C3.84052 3.90645 3.3039 3.36792 2.64194 3.36792C1.97998 3.36792 1.44336 3.90645 1.44336 4.57075C1.44336 5.23505 1.97998 5.77358 2.64194 5.77358Z" fill="#3F597D"/>
<path d="M3.50984 5.40039L4.52992 4.34302L3.47632 4.45376L3.50984 5.40039Z" fill="#3F597D"/>
<path d="M1.81787 3.69725L2.74982 2.73193L2.60925 3.52821L1.81787 3.69725Z" fill="#3F597D"/>
<path d="M13.9408 4.7311C14.6027 4.7311 15.1393 4.19257 15.1393 3.52827C15.1393 2.86396 14.6027 2.32544 13.9408 2.32544C13.2788 2.32544 12.7422 2.86396 12.7422 3.52827C12.7422 4.19257 13.2788 4.7311 13.9408 4.7311Z" fill="#B7E546"/>
<path d="M17.4421 3.69481L18.4823 2.65308L18.2397 3.79785L17.4421 3.69481Z" fill="#3F597D"/>
<path d="M35.8307 5.40593L36.8851 4.34912L36.0684 4.62024L35.8307 5.40593Z" fill="#3F597D"/>
<path d="M8.8967 4.7311C9.55866 4.7311 10.0953 4.19257 10.0953 3.52827C10.0953 2.86396 9.55866 2.32544 8.8967 2.32544C8.23474 2.32544 7.69812 2.86396 7.69812 3.52827C7.69812 4.19257 8.23474 4.7311 8.8967 4.7311Z" fill="#FFBF54"/>
<path d="M3.64816 4.7311C4.31012 4.7311 4.84675 4.19257 4.84675 3.52827C4.84675 2.86396 4.31012 2.32544 3.64816 2.32544C2.98621 2.32544 2.44958 2.86396 2.44958 3.52827C2.44958 4.19257 2.98621 4.7311 3.64816 4.7311Z" fill="#DC4955"/>
<path d="M19.3044 4.7311C18.6425 4.7311 18.1058 4.19255 18.1058 3.52827C18.1058 2.86399 18.6425 2.32544 19.3044 2.32544H36.0089C36.6709 2.32544 37.2075 2.86399 37.2075 3.52827C37.2075 4.19255 36.6709 4.7311 36.0089 4.7311H19.3044Z" fill="#FAF8F8"/>
<path d="M11.5279 18.538H27.9267C28.2182 18.538 28.4545 18.1688 28.4545 17.7728V13.4839C28.4545 13.2166 28.2182 13 27.9267 13H11.5279C11.2363 13 11 13.2166 11 13.4839V17.7728C11 18.2391 11.2363 18.538 11.5279 18.538Z" fill="#DE5974"/>
<path d="M27.9267 18.2568H11.5279C11.2363 18.2568 11 18.0402 11 17.7729V18.3536C11 18.6208 11.2363 18.8375 11.5279 18.8375H27.9267C28.2182 18.8375 28.4545 18.6208 28.4545 18.3536V17.7729C28.4545 18.0402 28.2182 18.2568 27.9267 18.2568Z" fill="#C7495D"/>
<path d="M26.3754 15.0933L25.7608 15.0114C25.6627 14.9984 25.5781 14.942 25.5342 14.8605L25.2594 14.35C25.149 14.145 24.8301 14.145 24.7198 14.35L24.4449 14.8605C24.4011 14.942 24.3164 14.9984 24.2184 15.0114L23.6038 15.0933C23.357 15.1262 23.2584 15.4042 23.437 15.5637L23.8818 15.9611C23.9527 16.0244 23.985 16.1157 23.9683 16.2052L23.8797 16.6789H26.0995L26.0108 16.2052C25.9941 16.1157 26.0265 16.0245 26.0974 15.9611L26.5421 15.5637C26.7207 15.4042 26.6222 15.1262 26.3754 15.0933Z" fill="#FFE07D"/>
<path d="M23.7495 21.4575C23.3796 21.4575 23.0797 21.7324 23.0797 22.0715V21.6497C23.0797 21.3106 22.7799 21.0357 22.41 21.0357C22.04 21.0357 21.7402 21.3106 21.7402 21.6497V21.2278C21.7402 20.8887 21.4403 20.6139 21.0704 20.6139C20.7005 20.6139 20.4006 20.8887 20.4006 21.2278V18.4792C20.4006 18.1401 20.1007 17.8652 19.7308 17.8652C19.3609 17.8652 19.061 18.1401 19.061 18.4792V23.9673H19.051L17.9733 22.8601C17.636 22.5135 17.1534 22.3154 16.6468 22.3154C16.3858 22.3154 16.2198 22.5714 16.3446 22.7815L17.3957 24.5516C17.6428 24.9677 17.9593 25.3459 18.3337 25.6724L19.5358 26.721V26.9927L21.4843 27.2739L23.4328 26.9927V26.721C23.4328 26.721 24.4193 25.7674 24.4193 23.5492V22.0715C24.4193 21.7324 24.1194 21.4575 23.7495 21.4575Z" fill="#F0C69E"/>
<path d="M19.5359 27.5733L21.4757 27.8546L23.4329 27.5733V26.9927H19.5359V27.5733Z" fill="#E6BA94"/>
<path d="M21.113 15.0933L20.4984 15.0114C20.4004 14.9984 20.3157 14.942 20.2719 14.8605L19.997 14.35C19.8867 14.145 19.5678 14.145 19.4574 14.35L19.1825 14.8605C19.1387 14.942 19.054 14.9984 18.956 15.0114L18.3414 15.0933C18.0946 15.1262 17.9961 15.4042 18.1747 15.5637L18.6194 15.9611C18.6903 16.0244 18.7227 16.1157 18.706 16.2052L18.6173 16.6789H20.8372L20.7485 16.2052C20.7318 16.1157 20.7641 16.0245 20.835 15.9611L21.2798 15.5637C21.4584 15.4042 21.3598 15.1262 21.113 15.0933Z" fill="#FFE07D"/>
<path d="M15.8505 15.0933L15.2359 15.0114C15.1379 14.9984 15.0532 14.942 15.0094 14.8605L14.7346 14.35C14.6242 14.145 14.3053 14.145 14.195 14.35L13.9201 14.8606C13.8763 14.942 13.7916 14.9984 13.6936 15.0115L13.079 15.0933C12.8322 15.1262 12.7337 15.4042 12.9122 15.5637L13.357 15.9611C13.4279 16.0245 13.4602 16.1158 13.4435 16.2052L13.3548 16.6789H15.5746L15.486 16.2052C15.4693 16.1158 15.5016 16.0245 15.5725 15.9611L16.0173 15.5637C16.1958 15.4042 16.0973 15.1262 15.8505 15.0933Z" fill="#FFE07D"/>
<path d="M19.3946 28.7006H23.5561C23.7436 28.7006 23.8956 28.4762 23.8956 28.1081V27.8845C23.8956 27.7126 23.7436 27.5732 23.5561 27.5732H19.3946C19.2071 27.5732 19.0551 27.7126 19.0551 27.8845V28.1081C19.0551 28.4687 19.207 28.7006 19.3946 28.7006Z" fill="#E5ECF7"/>
<path d="M23.5561 28.4194H19.3946C19.2071 28.4194 19.0551 28.28 19.0551 28.1082V28.6888C19.0551 28.8607 19.2071 29 19.3946 29H23.5561C23.7436 29 23.8956 28.8607 23.8956 28.6888V28.1082C23.8956 28.28 23.7436 28.4194 23.5561 28.4194Z" fill="#B9CBEA"/>
<path d="M15.5749 16.679L14.6049 16.2116C14.5173 16.1694 14.4126 16.1694 14.325 16.2116L13.355 16.679L13.3387 16.7664C13.2965 16.9917 13.5545 17.1635 13.7752 17.0572L14.3249 16.7922C14.4126 16.75 14.5173 16.75 14.6049 16.7922L15.1546 17.0572C15.3754 17.1635 15.6333 16.9917 15.5912 16.7664L15.5749 16.679Z" fill="#FFD064"/>
<path d="M20.8374 16.679L19.8674 16.2116C19.7798 16.1694 19.6751 16.1694 19.5874 16.2116L18.6175 16.679L18.6011 16.7664C18.559 16.9917 18.817 17.1635 19.0377 17.0572L19.5874 16.7922C19.675 16.75 19.7797 16.75 19.8674 16.7922L20.4171 17.0572C20.6379 17.1635 20.8958 16.9917 20.8536 16.7664L20.8374 16.679Z" fill="#FFD064"/>
<path d="M26.0998 16.679L25.1299 16.2116C25.0422 16.1694 24.9375 16.1694 24.8499 16.2116L23.8799 16.679L23.8636 16.7664C23.8214 16.9917 24.0794 17.1635 24.3001 17.0572L24.8498 16.7922C24.9375 16.75 25.0422 16.75 25.1299 16.7922L25.6796 17.0572C25.9003 17.1635 26.1583 16.9917 26.1161 16.7664L26.0998 16.679Z" fill="#FFD064"/>
</svg>
