<svg width="40" height="34" viewBox="0 0 40 34" fill="none" xmlns="http://www.w3.org/2000/svg">
<path d="M39.8538 7.37744V32.3963C39.8538 33.2821 39.1358 34.0001 38.25 34.0001H1.60377C0.718009 34.0001 0 33.2821 0 32.3963V7.37744H39.8538Z" fill="#FAF8F8"/>
<path d="M39.8538 8.9811V7.37733L17.7208 6.35107L0 7.37733V8.9811V32.3962C0 33.282 0.718009 34 1.60377 34H2.8066C2.14264 34 1.60377 33.4611 1.60377 32.7971V9.46223C1.60377 9.19649 1.81916 8.9811 2.08491 8.9811H39.8538Z" fill="#F0E9E6"/>
<path d="M39.8538 1.60377V7.41745H0V1.60377C0 0.718009 0.718009 0 1.60377 0H38.25C39.1358 0 39.8538 0.718009 39.8538 1.60377Z" fill="#5D748A"/>
<path d="M18.2636 5.77358C17.6017 5.77358 17.0651 5.23503 17.0651 4.57075C17.0651 3.90647 17.6017 3.36792 18.2636 3.36792H34.9681C35.6301 3.36792 36.1667 3.90647 36.1667 4.57075C36.1667 5.23503 35.6301 5.77358 34.9681 5.77358H18.2636Z" fill="#3F597D"/>
<path d="M12.8999 5.77358C13.5618 5.77358 14.0985 5.23505 14.0985 4.57075C14.0985 3.90645 13.5618 3.36792 12.8999 3.36792C12.2379 3.36792 11.7013 3.90645 11.7013 4.57075C11.7013 5.23505 12.2379 5.77358 12.8999 5.77358Z" fill="#3F597D"/>
<path d="M13.7412 5.42746L14.7736 4.39551L13.72 4.49005L13.7412 5.42746Z" fill="#3F597D"/>
<path d="M12.0758 3.69724L13.0831 2.6936L12.8672 3.52821L12.0758 3.69724Z" fill="#3F597D"/>
<path d="M7.86118 5.77358C8.52314 5.77358 9.05976 5.23505 9.05976 4.57075C9.05976 3.90645 8.52314 3.36792 7.86118 3.36792C7.19922 3.36792 6.6626 3.90645 6.6626 4.57075C6.6626 5.23505 7.19922 5.77358 7.86118 5.77358Z" fill="#3F597D"/>
<path d="M8.70469 5.42513L9.69759 4.42285L8.68127 4.48989L8.70469 5.42513Z" fill="#3F597D"/>
<path d="M7.03711 3.69731L8.02912 2.69824L7.82849 3.52828L7.03711 3.69731Z" fill="#3F597D"/>
<path d="M2.64194 5.77358C3.3039 5.77358 3.84052 5.23505 3.84052 4.57075C3.84052 3.90645 3.3039 3.36792 2.64194 3.36792C1.97998 3.36792 1.44336 3.90645 1.44336 4.57075C1.44336 5.23505 1.97998 5.77358 2.64194 5.77358Z" fill="#3F597D"/>
<path d="M3.50984 5.40039L4.52992 4.34302L3.47632 4.45376L3.50984 5.40039Z" fill="#3F597D"/>
<path d="M1.81787 3.69725L2.74982 2.73193L2.60925 3.52821L1.81787 3.69725Z" fill="#3F597D"/>
<path d="M13.9408 4.7311C14.6027 4.7311 15.1393 4.19257 15.1393 3.52827C15.1393 2.86396 14.6027 2.32544 13.9408 2.32544C13.2788 2.32544 12.7422 2.86396 12.7422 3.52827C12.7422 4.19257 13.2788 4.7311 13.9408 4.7311Z" fill="#B7E546"/>
<path d="M17.4421 3.69481L18.4823 2.65308L18.2397 3.79785L17.4421 3.69481Z" fill="#3F597D"/>
<path d="M35.8307 5.40593L36.8851 4.34912L36.0684 4.62024L35.8307 5.40593Z" fill="#3F597D"/>
<path d="M8.8967 4.7311C9.55866 4.7311 10.0953 4.19257 10.0953 3.52827C10.0953 2.86396 9.55866 2.32544 8.8967 2.32544C8.23474 2.32544 7.69812 2.86396 7.69812 3.52827C7.69812 4.19257 8.23474 4.7311 8.8967 4.7311Z" fill="#FFBF54"/>
<path d="M3.64816 4.7311C4.31012 4.7311 4.84675 4.19257 4.84675 3.52827C4.84675 2.86396 4.31012 2.32544 3.64816 2.32544C2.98621 2.32544 2.44958 2.86396 2.44958 3.52827C2.44958 4.19257 2.98621 4.7311 3.64816 4.7311Z" fill="#DC4955"/>
<path d="M19.3044 4.7311C18.6425 4.7311 18.1058 4.19255 18.1058 3.52827C18.1058 2.86399 18.6425 2.32544 19.3044 2.32544H36.0089C36.6709 2.32544 37.2075 2.86399 37.2075 3.52827C37.2075 4.19255 36.6709 4.7311 36.0089 4.7311H19.3044Z" fill="#FAF8F8"/>
<path d="M24.0395 28.7101V15.0344L21.6916 13H11.2941C11.1317 13 11 13.1298 11 13.2898V28.71C11 28.8701 11.1317 28.9999 11.2941 28.9999H23.7454C23.9079 28.9999 24.0395 28.8701 24.0395 28.7101Z" fill="#FFF5F5"/>
<path d="M24.0395 15.0346V28.7102C24.0395 28.8703 23.9079 29.0001 23.7454 29.0001H22.6565C22.8237 29.0001 22.9592 28.8666 22.9592 28.7018V14.0986L24.0395 15.0346Z" fill="#EFE2DD"/>
<path d="M24.0397 15.0344L21.6918 13V14.6301C21.6918 14.8534 21.8754 15.0344 22.1021 15.0344H24.0397Z" fill="#B9ACAC"/>
<path d="M18.1165 22.8679H12.8224C12.6701 22.8679 12.5466 22.7463 12.5466 22.5962C12.5466 22.4461 12.6701 22.3245 12.8224 22.3245H18.1165C18.2688 22.3245 18.3922 22.4461 18.3922 22.5962C18.3922 22.7463 18.2688 22.8679 18.1165 22.8679Z" fill="#678D98"/>
<path d="M22.2167 22.8679H19.5697C19.4174 22.8679 19.2939 22.7463 19.2939 22.5962C19.2939 22.4461 19.4174 22.3245 19.5697 22.3245H22.2167C22.369 22.3245 22.4925 22.4461 22.4925 22.5962C22.4925 22.7463 22.3691 22.8679 22.2167 22.8679Z" fill="#678D98"/>
<path d="M18.1165 24.3293H12.8224C12.6701 24.3293 12.5466 24.2077 12.5466 24.0576C12.5466 23.9075 12.6701 23.7859 12.8224 23.7859H18.1165C18.2688 23.7859 18.3922 23.9075 18.3922 24.0576C18.3922 24.2077 18.2688 24.3293 18.1165 24.3293Z" fill="#678D98"/>
<path d="M21.3652 24.3293H19.57C19.4178 24.3293 19.2943 24.2077 19.2943 24.0576C19.2943 23.9075 19.4178 23.7859 19.57 23.7859H21.3652C21.5174 23.7859 21.6409 23.9075 21.6409 24.0576C21.6409 24.2077 21.5174 24.3293 21.3652 24.3293Z" fill="#678D98"/>
<path d="M18.1165 25.791H12.8224C12.6701 25.791 12.5466 25.6694 12.5466 25.5193C12.5466 25.3692 12.6701 25.2476 12.8224 25.2476H18.1165C18.2688 25.2476 18.3922 25.3692 18.3922 25.5193C18.3922 25.6694 18.2688 25.791 18.1165 25.791Z" fill="#678D98"/>
<path d="M20.9655 25.791H19.57C19.4178 25.791 19.2943 25.6694 19.2943 25.5193C19.2943 25.3692 19.4178 25.2476 19.57 25.2476H20.9655C21.1178 25.2476 21.2412 25.3692 21.2412 25.5193C21.2412 25.6694 21.1178 25.791 20.9655 25.791Z" fill="#678D98"/>
<path d="M18.1165 27.2524H12.8224C12.6701 27.2524 12.5466 27.1308 12.5466 26.9807C12.5466 26.8306 12.6701 26.709 12.8224 26.709H18.1165C18.2688 26.709 18.3922 26.8306 18.3922 26.9807C18.3922 27.1308 18.2688 27.2524 18.1165 27.2524Z" fill="#678D98"/>
<path d="M20.9655 27.2524H19.57C19.4178 27.2524 19.2943 27.1308 19.2943 26.9807C19.2943 26.8306 19.4178 26.709 19.57 26.709H20.9655C21.1178 26.709 21.2412 26.8306 21.2412 26.9807C21.2412 27.1308 21.1178 27.2524 20.9655 27.2524Z" fill="#678D98"/>
<path d="M23.4965 25.6774L22.2588 24.5303L22.0119 27.1044C22.0049 27.177 22.0692 27.2365 22.1422 27.2252L24.7343 26.8245L23.4965 25.6774Z" fill="#FFC143"/>
<path d="M23.3662 27.036L22.1422 27.2252C22.0692 27.2365 22.0049 27.177 22.0119 27.1044L22.1284 25.8889L23.3662 27.036Z" fill="#7CA1B1"/>
<path d="M29.2241 21.722L27.1517 19.8014L27.5157 19.42C27.8438 19.0762 28.3927 19.0596 28.7416 19.3829L29.5504 20.1326C29.8993 20.4559 29.9162 20.9968 29.5881 21.3406L29.2241 21.722Z" fill="#7CA1B1"/>
<path d="M29.5876 21.3406L29.2236 21.722L28.745 21.2784L29.109 20.897C29.4371 20.5532 29.4202 20.0123 29.0714 19.689L29.55 20.1325C29.8988 20.4559 29.9157 20.9968 29.5876 21.3406Z" fill="#678D98"/>
<path d="M28.6015 22.9002L25.9966 20.486C25.9047 20.4008 25.9003 20.2584 25.9867 20.1679L26.5626 19.5645C26.649 19.474 26.7935 19.4696 26.8853 19.5548L29.4902 21.9689C29.5821 22.0541 29.5865 22.1965 29.5001 22.287L28.9242 22.8904C28.8378 22.9809 28.6933 22.9853 28.6015 22.9002Z" fill="#FFC143"/>
<path d="M28.6015 22.8999L28.3352 22.6532L29.2239 21.7219L29.4902 21.9687C29.582 22.0538 29.5865 22.1963 29.5001 22.2868L28.9242 22.8902C28.8378 22.9807 28.6933 22.9851 28.6015 22.8999Z" fill="#FFB509"/>
<path d="M22.2634 24.5234L26.0655 20.536L28.5428 22.8299L24.7407 26.8174L22.2634 24.5234Z" fill="#FF5757"/>
<path d="M24.2682 26.3794L28.0702 22.3919L28.5426 22.8294L24.7406 26.8168L24.2682 26.3794Z" fill="#FF4343"/>
<path d="M24.7343 26.8247L22.1422 27.2253C22.0692 27.2366 22.0049 27.1771 22.0119 27.1046L22.0485 26.7224L24.2557 26.3811L24.7343 26.8247Z" fill="#FFB509"/>
<path d="M23.3662 27.0361L22.1422 27.2253C22.0692 27.2366 22.0049 27.177 22.0119 27.1045L22.0485 26.7223L22.8876 26.5925L23.3662 27.0361Z" fill="#678D98"/>
<path d="M26.8558 21.2781L27.76 22.1153L23.9579 26.1027L23.0538 25.2655L26.8558 21.2781Z" fill="#A3E72D"/>
<path d="M16.5313 20.2292H13.1172C12.7476 20.2292 12.448 19.9962 12.448 19.7088V16.4164C12.448 16.129 12.7476 15.896 13.1172 15.896H16.5313C16.9009 15.896 17.2005 16.129 17.2005 16.4164V19.7088C17.2005 19.9962 16.9009 20.2292 16.5313 20.2292Z" fill="#BED8FB"/>
<path d="M14.8081 18.8003C14.158 18.8003 13.6046 19.2541 13.3964 19.8887C13.4442 20.0736 13.5989 20.2091 13.7827 20.2091H15.8335C16.0174 20.2091 16.172 20.0736 16.2199 19.8887C16.0117 19.2541 15.4583 18.8003 14.8081 18.8003Z" fill="#4A80AA"/>
<path d="M14.8081 18.8003C15.3279 18.8003 15.7493 18.3798 15.7493 17.8611C15.7493 17.3424 15.3279 16.9219 14.8081 16.9219C14.2883 16.9219 13.8669 17.3424 13.8669 17.8611C13.8669 18.3798 14.2883 18.8003 14.8081 18.8003Z" fill="#365E7D"/>
</svg>
