<svg width="154" height="156" viewBox="0 0 154 156" fill="none" xmlns="http://www.w3.org/2000/svg">
<path d="M48.7584 155.696L2.82408 137.787C0.54289 136.898 -0.585367 134.328 0.304015 132.047L33.9223 45.8172C34.8117 43.5361 37.3817 42.4078 39.6629 43.2972L85.5973 61.2055C87.8785 62.0949 89.0067 64.6649 88.1173 66.9461L54.4991 153.176C53.6097 155.457 51.0393 156.585 48.7584 155.696Z" fill="#FFE07D"/>
<path d="M85.5971 61.2057L71.4712 55.6985L69.8963 57.8944C68.8259 59.3864 68.4591 61.2709 68.8911 63.0555L72.0706 76.1847C73.0614 80.2764 72.7729 84.5734 71.2436 88.4959L45.5344 154.439L48.7583 155.696C51.0395 156.585 53.6095 155.457 54.4989 153.176L76.8389 95.8749L88.1172 66.9463C89.0066 64.6651 87.8783 62.0951 85.5971 61.2057Z" fill="#FFD064"/>
<path d="M31.739 114.803C31.158 114.803 30.5767 114.586 30.1266 114.15C29.2062 113.259 29.1824 111.791 30.0733 110.871L55.7109 84.384C56.6012 83.4635 58.0695 83.4391 58.99 84.3306C59.9104 85.2215 59.9342 86.6895 59.0433 87.6097L33.4057 114.097C32.9508 114.567 32.3454 114.803 31.739 114.803Z" fill="#365E7D"/>
<path d="M38.8115 94.6951C37.8407 94.6951 36.877 94.5163 35.9535 94.1561C33.7457 93.2954 32.0703 91.5172 31.2354 89.1489C30.4441 86.9039 30.5109 84.3793 31.4231 82.0393C33.3542 77.0854 38.5299 74.4602 42.9589 76.1863C47.3887 77.9135 49.421 83.3492 47.4893 88.3034C46.5773 90.6431 44.9174 92.5468 42.8157 93.6637C41.5262 94.349 40.1615 94.6951 38.8115 94.6951ZM40.0954 80.288C38.3532 80.288 36.5601 81.6326 35.7448 83.7239C35.2357 85.0295 35.1878 86.4088 35.6101 87.6066C35.9888 88.6809 36.7094 89.4722 37.6384 89.8341C38.5683 90.197 39.6335 90.1019 40.6396 89.5675C41.7611 88.9713 42.6594 87.924 43.1685 86.6178C44.1706 84.0466 43.3211 81.3053 41.2746 80.507C40.8925 80.3587 40.4952 80.288 40.0954 80.288Z" fill="#365E7D"/>
<path d="M48.2933 123.338C47.3412 123.338 46.3854 123.167 45.4619 122.807C41.0323 121.08 39.0001 115.645 40.9318 110.69C41.844 108.351 43.5037 106.447 45.6054 105.33C47.8229 104.151 50.2601 103.976 52.4679 104.838C54.6756 105.698 56.3511 107.476 57.1859 109.845C57.9772 112.09 57.9105 114.614 56.9983 116.954C55.4693 120.875 51.9082 123.338 48.2933 123.338ZM49.6166 108.942C49.0118 108.942 48.386 109.104 47.7818 109.426C46.6602 110.022 45.762 111.069 45.2529 112.375C44.2508 114.946 45.1002 117.688 47.1468 118.486C49.1937 119.284 51.6738 117.841 52.6769 115.269C53.1857 113.964 53.2338 112.585 52.8112 111.387C52.4328 110.312 51.7122 109.521 50.7829 109.159C50.4115 109.014 50.0188 108.942 49.6166 108.942Z" fill="#365E7D"/>
<path d="M148.856 145.1L104.584 155.821C101.198 156.641 97.7882 154.561 96.9682 151.175L75.2638 61.5487C74.8318 59.7641 75.1986 57.8796 76.269 56.3876L93.9409 31.7505C95.7717 29.1982 99.2016 28.3816 101.986 29.8356L128.58 43.7223C130.192 44.5642 131.363 46.0614 131.791 47.8292L153.502 137.485C154.322 140.871 152.242 144.28 148.856 145.1Z" fill="#E28086"/>
<path d="M153.502 137.485L131.791 47.829C131.363 46.0612 130.193 44.5643 128.58 43.7221L101.987 29.8354C99.202 28.3814 95.7721 29.1977 93.9412 31.7504L92.9592 33.1193C93.3529 33.2342 93.7411 33.3856 94.1167 33.5818L120.71 47.4686C122.323 48.3104 123.493 49.8077 123.921 51.5754L145.633 141.231C146.05 142.955 145.713 144.682 144.838 146.074L148.856 145.1C152.242 144.28 154.322 140.871 153.502 137.485Z" fill="#DD636E"/>
<path d="M111.994 121.283C111.871 121.283 111.747 121.273 111.622 121.253C110.358 121.05 109.498 119.859 109.702 118.595L115.566 82.2019C115.77 80.9374 116.958 80.0743 118.224 80.2814C119.489 80.4853 120.349 81.6754 120.145 82.9398L114.281 119.333C114.097 120.472 113.112 121.283 111.994 121.283Z" fill="#365E7D"/>
<path d="M103.103 101.745C101.403 101.745 99.7183 101.19 98.2226 100.117C96.289 98.7287 94.8987 96.6199 94.308 94.1794C93.0566 89.011 95.7979 83.8962 100.418 82.7774C102.722 82.2195 105.113 82.7192 107.153 84.1829C109.087 85.5711 110.477 87.6795 111.068 90.1204C111.659 92.5612 111.387 95.0724 110.303 97.1909C109.159 99.4264 107.261 100.965 104.957 101.522C104.343 101.671 103.722 101.745 103.103 101.745ZM102.254 87.1966C102.003 87.1966 101.755 87.2258 101.51 87.2849C99.3749 87.802 98.1665 90.4049 98.8158 93.0877C99.1458 94.4497 99.8956 95.6078 100.928 96.3485C101.853 97.013 102.897 97.2494 103.866 97.0145C104.836 96.7796 105.655 96.0919 106.174 95.0779C106.753 93.9469 106.89 92.5743 106.56 91.2121C106.23 89.8495 105.481 88.6914 104.449 87.9507C103.756 87.4543 102.998 87.1966 102.254 87.1966Z" fill="#365E7D"/>
<path d="M127.326 119.794C123.333 119.794 119.589 116.719 118.502 112.232C117.911 109.791 118.183 107.28 119.267 105.161C120.411 102.926 122.309 101.388 124.612 100.83C129.234 99.7105 134.01 103.006 135.262 108.173C136.513 113.341 133.772 118.456 129.152 119.575C128.543 119.723 127.931 119.794 127.326 119.794ZM126.46 105.248C126.207 105.248 125.955 105.277 125.704 105.338C124.735 105.573 123.915 106.26 123.396 107.274C122.817 108.405 122.68 109.778 123.01 111.14C123.659 113.823 125.926 115.582 128.06 115.068C130.195 114.55 131.404 111.947 130.754 109.265C130.181 106.898 128.349 105.248 126.46 105.248Z" fill="#365E7D"/>
<path d="M59.0071 63.8592C57.7668 63.8592 56.7381 62.8775 56.6909 61.6274C56.6775 61.2742 56.3929 52.8642 58.7814 42.5265C61.9842 28.662 68.5353 18.0098 77.725 11.722C78.4224 11.2449 79.3243 11.1848 80.0784 11.5651C80.32 11.6867 86.0554 14.6104 91.8494 20.2944C99.6314 27.9289 103.772 36.9312 103.824 46.3272C103.831 47.6078 102.798 48.6519 101.517 48.659C101.513 48.659 101.509 48.659 101.504 48.659C100.229 48.659 99.1923 47.6291 99.1853 46.3525C99.0918 29.346 83.6576 19.0135 79.1881 16.3776C60.3858 30.4725 61.3133 61.1383 61.3255 61.4528C61.3736 62.7328 60.3752 63.8092 59.0952 63.8577C59.0665 63.8586 59.0364 63.8592 59.0071 63.8592Z" fill="#D0CEE7"/>
<path d="M79.0353 15.9549C77.7544 15.9549 76.7163 14.9169 76.7163 13.636V2.31897C76.7163 1.03807 77.7544 0 79.0353 0C80.3162 0 81.3546 1.03807 81.3546 2.31897V13.6357C81.3543 14.9166 80.3162 15.9549 79.0353 15.9549Z" fill="#D0CEE7"/>
<path d="M61.4797 64.8231C61.1994 64.8231 60.9148 64.7722 60.6379 64.664L55.6949 62.7369C54.5015 62.2719 53.9116 60.927 54.3769 59.7339C54.8418 58.5404 56.1861 57.9496 57.3799 58.4158L62.3228 60.343C63.5163 60.8079 64.1061 62.1528 63.6409 63.346C63.2838 64.2625 62.4078 64.8231 61.4797 64.8231Z" fill="#BEB9DD"/>
<path d="M98.9256 49.2835C97.8796 49.2835 96.9305 48.5712 96.6737 47.5093C96.372 46.2647 97.1368 45.0112 98.3821 44.7099L103.538 43.4613C104.785 43.1596 106.037 43.9244 106.338 45.1696C106.64 46.4143 105.875 47.6678 104.63 47.9691L99.4734 49.2177C99.2897 49.2622 99.1063 49.2835 98.9256 49.2835Z" fill="#BEB9DD"/>
</svg>
