<svg width="88" height="84" viewBox="0 0 88 84" fill="none" xmlns="http://www.w3.org/2000/svg">
<path d="M30.411 74.6235C30.0523 77.6649 27.6775 78.4196 27.0627 79.0157C35.5235 79.0157 44.0289 79.0157 52.458 79.0157C51.898 78.4728 49.4665 77.6503 49.1095 74.6233L48.2931 67.5188H31.2275L30.411 74.6235Z" fill="#DDDDDD"/>
<path d="M36.8571 74.6235L37.6736 67.5188H31.2275L30.411 74.6235C30.0523 77.6649 27.6775 78.4196 27.0627 79.0157C29.2093 79.0157 31.3586 79.0157 33.5091 79.0157L34.9663 77.999C36.0149 77.2671 36.7046 75.9176 36.8571 74.6235Z" fill="#CECCCA"/>
<path d="M55.1773 78.8606H24.3434C22.9285 78.8606 21.7708 80.0168 21.7708 81.4303C21.7708 82.8435 22.9283 83.9999 24.3434 83.9999H55.1771C56.592 83.9999 57.7497 82.8437 57.7497 81.4303C57.7497 80.0168 56.5921 78.8606 55.1773 78.8606Z" fill="#EFEFEF"/>
<path d="M31.3514 81.4303C31.3514 80.017 32.509 78.8606 33.924 78.8606H24.3434C22.9285 78.8606 21.7708 80.0168 21.7708 81.4303C21.7708 82.8435 22.9285 83.9999 24.3434 83.9999H33.924C32.5092 83.9999 31.3514 82.8437 31.3514 81.4303Z" fill="#DDDDDD"/>
<path d="M58.371 41.8286C58.371 39.2806 60.439 37.2151 62.9898 37.2151H79.6614V5.14379C79.6614 2.31472 77.344 0 74.5117 0H5.14972C2.31739 0 0 2.31472 0 5.14379V62.5524C0 65.3815 2.31739 67.6962 5.14972 67.6962H58.371V41.8286Z" fill="#EFEFEF"/>
<path d="M9.58067 62.5524V5.14379C9.58067 2.31472 11.8981 0 14.7304 0H5.14972C2.31739 0 0 2.31472 0 5.14379V62.5524C0 65.3815 2.31739 67.6962 5.14972 67.6962H14.7304C11.8981 67.696 9.58067 65.3815 9.58067 62.5524Z" fill="#DDDDDD"/>
<path d="M58.371 41.8286C58.371 39.2806 60.439 37.2151 62.9898 37.2151H79.6614V5.14379C79.6614 2.31472 77.344 0 74.5117 0H5.14972C2.31739 0 0 2.31472 0 5.14379V57.2405H58.371V41.8286Z" fill="#647892"/>
<path d="M9.58067 5.14379C9.58067 2.31472 11.8981 0 14.7304 0H5.14972C2.32375 0 0 2.31403 0 5.14379V57.2405H9.58067V5.14379Z" fill="#4D6682"/>
<path d="M5.14502 14.7087V51.0461C5.14502 51.5309 5.53844 51.9239 6.02382 51.9239H58.1934V41.8286C58.1934 39.2805 60.2614 37.2151 62.8124 37.2151H74.3387V14.7087H5.14502Z" fill="#A4D9F4"/>
<path d="M9.5806 14.7087H5.14502V51.0461C5.14502 51.5309 5.53844 51.9239 6.02382 51.9239H9.58043L9.5806 14.7087Z" fill="#77CFF2"/>
<path d="M39.5007 63.7406C38.8386 63.6035 38.4292 63.0347 38.4292 62.4362C38.4292 61.2675 39.8556 60.6565 40.7019 61.497C41.0182 61.8223 41.1495 62.2491 41.0656 62.6968C40.9149 63.4174 40.2356 63.878 39.5007 63.7406Z" fill="#DDDDDD"/>
<path d="M27.7974 25.696L30.732 38.1011H47.6887C48.2055 38.1011 48.6556 37.7486 48.7792 37.2473L51.4498 26.4035C51.5294 26.0401 51.2521 25.696 50.8797 25.696C49.5941 25.696 29.2824 25.696 27.7974 25.696Z" fill="#FAC149"/>
<path d="M47.9919 43.5062H32.9168C31.6495 43.5062 30.5578 42.6466 30.2616 41.4158L25.6305 21.886H22.5321C21.7971 21.886 21.2014 21.291 21.2014 20.5569C21.2014 19.8228 21.7971 19.2278 22.5321 19.2278H26.1471C27.0844 19.2278 27.8882 19.8644 28.102 20.7758L32.8501 40.799C32.8566 40.8261 32.8845 40.8479 32.9166 40.8479H47.9918C48.7267 40.8479 49.3224 41.443 49.3224 42.1771C49.3226 42.9113 48.7269 43.5062 47.9919 43.5062ZM26.1473 21.886H26.149H26.1473ZM25.5119 21.3852C25.512 21.3863 25.5124 21.3871 25.5126 21.3882L25.5119 21.3852Z" fill="#EFEFEF"/>
<path d="M73.4599 5.13916H6.02382C5.53844 5.13916 5.14502 5.53213 5.14502 6.01694V15.2405H74.3387V6.01694C74.3387 5.53213 73.9453 5.13916 73.4599 5.13916Z" fill="#EFEFEF"/>
<path d="M9.5806 5.14387C9.5806 5.14232 9.58077 5.14078 9.58077 5.1394H6.02382C5.53844 5.1394 5.14502 5.53237 5.14502 6.01719V15.2407H9.58043L9.5806 5.14387Z" fill="#DDDDDD"/>
<path d="M12.1976 11.7226C11.4654 11.7226 10.8669 11.1274 10.8669 10.3935C10.8669 9.76172 11.3057 9.22231 11.9386 9.09098C12.7445 8.92857 13.5283 9.54558 13.5283 10.3935C13.5283 11.1264 12.9337 11.7226 12.1976 11.7226Z" fill="#FC5B6F"/>
<path d="M17.224 11.7226C16.4942 11.7226 15.8933 11.1339 15.8933 10.3935C15.8933 9.77357 16.3227 9.22386 16.9631 9.09098C17.7956 8.92772 18.5546 9.56859 18.5546 10.3935C18.5546 11.1163 17.969 11.7226 17.224 11.7226Z" fill="#FAC149"/>
<path d="M22.252 11.7226C21.5011 11.7226 20.9214 11.1114 20.9214 10.3935C20.9214 9.7782 21.3518 9.22385 21.993 9.09097C22.8161 8.92788 23.5827 9.55931 23.5827 10.3935C23.5827 11.1248 22.9902 11.7226 22.252 11.7226Z" fill="#23B658"/>
<path d="M66.8871 11.7847H28.3871C27.6521 11.7847 27.0564 11.1897 27.0564 10.4556C27.0564 9.7215 27.6521 9.12646 28.3871 9.12646H66.8871C67.622 9.12646 68.2178 9.7215 68.2178 10.4556C68.2178 11.1897 67.622 11.7847 66.8871 11.7847Z" fill="#DDDDDD"/>
<path d="M83.3811 36.6833H62.2801C59.7291 36.6833 57.6611 38.749 57.6611 41.297V79.3863C57.6611 81.9343 59.7291 83.9999 62.2801 83.9999H83.3811C85.932 83.9999 88 81.9343 88 79.3863V41.297C88 38.749 85.932 36.6833 83.3811 36.6833Z" fill="#EFEFEF"/>
<path d="M62.2889 79.3861V41.297C62.2889 38.749 64.3567 36.6833 66.9078 36.6833H62.2801C59.7291 36.6833 57.6611 38.749 57.6611 41.297V79.3863C57.6611 81.9343 59.7291 83.9999 62.2801 83.9999H66.9078C64.3567 83.9998 62.2889 81.9341 62.2889 79.3861Z" fill="#DDDDDD"/>
<path d="M83.5645 78.8536C83.5645 79.1511 83.323 79.3923 83.0252 79.3923H62.8135C62.5157 79.3923 62.2742 79.1511 62.2742 78.8536V41.8297C62.2742 41.5322 62.5157 41.291 62.8135 41.291H66.9323C67.2993 41.291 67.5968 41.5882 67.5968 41.9547V43.6861C67.5968 44.4186 68.1913 45.0126 68.9249 45.0126H77.3437C78.0356 45.0126 78.5966 44.4523 78.5966 43.7611V41.9607C78.5966 41.5909 78.8967 41.2912 79.267 41.2912H83.025C83.3229 41.2912 83.5643 41.5324 83.5643 41.8299V78.8536H83.5645Z" fill="#3997EE"/>
<path d="M66.7982 78.8536V41.8297C66.7982 41.6009 66.9417 41.4066 67.1433 41.3284C67.0766 41.306 67.0063 41.291 66.9321 41.291H62.8133C62.5154 41.291 62.2739 41.5322 62.2739 41.8297V78.8536C62.2739 79.1511 62.5154 79.3923 62.8133 79.3923H67.3374C67.0397 79.3923 66.7982 79.1511 66.7982 78.8536Z" fill="#1E88D8"/>
<path d="M73.984 42.2657H72.0323C71.2974 42.2657 70.7017 41.6706 70.7017 40.9365C70.7017 40.2025 71.2974 39.6074 72.0323 39.6074H73.984C74.7189 39.6074 75.3146 40.2025 75.3146 40.9365C75.3146 41.6706 74.7187 42.2657 73.984 42.2657Z" fill="#DDDDDD"/>
<path d="M73.0826 75.6886C72.3635 75.6886 71.752 75.0994 71.752 74.3594C71.752 73.7536 72.1672 73.1914 72.8236 73.0552C73.6415 72.8931 74.4133 73.5187 74.4133 74.3594C74.4133 75.0812 73.8268 75.6886 73.0826 75.6886Z" fill="#48AEF9"/>
<path d="M78.0647 55.7341H68.1292C67.3943 55.7341 66.7986 56.3292 66.7986 57.0633C66.7986 57.7973 67.3943 58.3924 68.1292 58.3924H78.0647C78.7996 58.3924 79.3953 57.7973 79.3953 57.0633C79.3953 56.3292 78.7994 55.7341 78.0647 55.7341Z" fill="#23B658"/>
<path d="M78.0647 49.7087H68.1292C67.3943 49.7087 66.7986 50.3038 66.7986 51.0379C66.7986 51.772 67.3943 52.367 68.1292 52.367H78.0647C78.7996 52.367 79.3953 51.772 79.3953 51.0379C79.3951 50.3038 78.7994 49.7087 78.0647 49.7087Z" fill="#A4D9F4"/>
<path d="M78.0647 67.7849H68.1292C67.3943 67.7849 66.7986 68.3799 66.7986 69.114C66.7986 69.8481 67.3943 70.4432 68.1292 70.4432H78.0647C78.7996 70.4432 79.3953 69.8481 79.3953 69.114C79.3951 68.3798 78.7994 67.7849 78.0647 67.7849Z" fill="#FC5B6F"/>
<path d="M78.0647 61.7595H68.1292C67.3943 61.7595 66.7986 62.3546 66.7986 63.0886C66.7986 63.8227 67.3943 64.4178 68.1292 64.4178H78.0647C78.7996 64.4178 79.3953 63.8227 79.3953 63.0886C79.3951 62.3546 78.7994 61.7595 78.0647 61.7595Z" fill="#FAC149"/>
<path d="M33.887 46.7845C35.1607 46.7845 36.1934 45.7531 36.1934 44.4807C36.1934 43.2084 35.1607 42.177 33.887 42.177C32.6132 42.177 31.5806 43.2084 31.5806 44.4807C31.5806 45.7531 32.6132 46.7845 33.887 46.7845Z" fill="#647892"/>
<path d="M47.0163 46.7845C48.2901 46.7845 49.3227 45.7531 49.3227 44.4807C49.3227 43.2084 48.2901 42.177 47.0163 42.177C45.7426 42.177 44.71 43.2084 44.71 44.4807C44.71 45.7531 45.7426 46.7845 47.0163 46.7845Z" fill="#647892"/>
</svg>
