<svg width="77" height="84" viewBox="0 0 77 84" fill="none" xmlns="http://www.w3.org/2000/svg">
<path fill-rule="evenodd" clip-rule="evenodd" d="M0.986016 83.9998H26.1739V62.5837H0.986016C0.44182 62.5837 0 63.0252 0 63.5696V83.0185C0 83.558 0.44182 83.9998 0.986016 83.9998Z" fill="#FFF3BF"/>
<path fill-rule="evenodd" clip-rule="evenodd" d="M0.986016 84H26.1739V79.8981H0.986016C0.44182 79.8981 0 79.4563 0 78.917V83.0187C0 83.5582 0.44182 84 0.986016 84Z" fill="#FFF0AF"/>
<path fill-rule="evenodd" clip-rule="evenodd" d="M49.8873 83.9999H75.0752C75.6194 83.9999 76.0612 83.558 76.0612 83.0186V53.7195C76.0612 53.1755 75.6194 52.7336 75.0752 52.7336H49.8873V83.9999Z" fill="#FFE07D"/>
<path fill-rule="evenodd" clip-rule="evenodd" d="M49.8873 84H75.0752C75.6194 84 76.0612 83.5582 76.0612 83.0187V78.917C76.0612 79.4563 75.6194 79.8981 75.0752 79.8981H49.8873V84Z" fill="#FFD064"/>
<path d="M31.6428 27.6202C32.3171 27.5319 32.9356 28.0015 33.024 28.6712C33.117 29.3455 32.6427 29.9642 31.973 30.0524C30.229 30.2897 28.2061 29.95 26.2108 29.0899C24.3599 28.2945 22.5135 27.0389 20.9137 25.3693C18.6488 23.002 17.2256 20.2303 16.7467 17.6724C16.2397 14.9332 16.7979 12.4032 18.5558 10.7244C19.4534 9.86404 20.4859 9.37562 21.588 9.13855C22.6251 8.91526 23.7133 8.92937 24.783 9.07801C25.4573 9.17104 25.927 9.79415 25.834 10.4638C25.7409 11.1336 25.1177 11.6033 24.4481 11.5104C23.6388 11.3987 22.8344 11.3847 22.095 11.5429C21.4207 11.6869 20.7882 11.9845 20.2486 12.5008C19.1325 13.5658 18.8024 15.2958 19.1604 17.2304C19.551 19.3418 20.7602 21.658 22.6902 23.6765C24.0481 25.0902 25.6154 26.1551 27.1781 26.8296C28.7782 27.518 30.3454 27.7969 31.6428 27.6202Z" fill="#DD636E"/>
<path d="M44.4184 27.6202C43.7441 27.5319 43.1256 28.0015 43.0371 28.6712C42.9489 29.3455 43.4184 29.9642 44.0881 30.0524C45.8367 30.2897 47.8598 29.95 49.8503 29.0899C51.7013 28.2945 53.5522 27.0389 55.1474 25.3693C57.4123 23.002 58.8401 20.2303 59.3144 17.6724C59.826 14.9332 59.2633 12.4032 57.5053 10.7244C56.6077 9.86404 55.5753 9.37562 54.4731 9.13855C53.4361 8.91526 52.3479 8.92937 51.2782 9.07801C50.6039 9.17104 50.1388 9.79415 50.2318 10.4638C50.3248 11.1336 50.9433 11.6033 51.613 11.5104C52.4269 11.3987 53.2267 11.3847 53.9663 11.5429C54.6406 11.6869 55.2731 11.9845 55.8173 12.5008C56.9288 13.5658 57.2635 15.2958 56.9008 17.2304C56.5101 19.3418 55.301 21.658 53.371 23.6765C52.013 25.0902 50.4457 26.1551 48.883 26.8296C47.2877 27.518 45.7204 27.7969 44.4184 27.6202Z" fill="#DD636E"/>
<path fill-rule="evenodd" clip-rule="evenodd" d="M51.7153 5.85495C51.7153 17.7885 45.7392 28.1781 41.9817 31.2846C38.2238 34.3912 46.33 39.7629 46.33 44.7064L38.0983 46.0365L29.7318 44.7064C29.7318 39.7629 37.838 34.3913 34.0801 31.2846C30.3224 28.1781 24.3464 17.7885 24.3464 5.85495L37.7543 4.77148L51.7153 5.85495Z" fill="#E28086"/>
<path fill-rule="evenodd" clip-rule="evenodd" d="M25.3552 84H50.706V45.6926C50.706 45.1485 50.2642 44.7065 49.7247 44.7065H26.3365C25.797 44.7065 25.3552 45.1484 25.3552 45.6926V84Z" fill="#FFC250"/>
<path d="M36.8331 50.6272C36.1541 50.6272 35.6007 50.0782 35.6007 49.3992C35.6007 48.7157 36.1541 48.1667 36.8331 48.1667H39.2283C39.9073 48.1667 40.4607 48.7157 40.4607 49.3992V60.612C40.4607 61.2911 39.9073 61.8445 39.2283 61.8445C38.5492 61.8445 38.0006 61.2911 38.0006 60.612V50.6274H36.8331V50.6272Z" fill="#30579D"/>
<path fill-rule="evenodd" clip-rule="evenodd" d="M25.3552 79.8982H50.706V84.0001H25.3552V79.8982Z" fill="#EBB044"/>
<path fill-rule="evenodd" clip-rule="evenodd" d="M44.9159 40.6047C45.7252 41.9674 46.3298 43.3533 46.3298 44.7065H29.7316C29.7316 43.3533 30.3361 41.9674 31.1455 40.6047H44.9159Z" fill="#DD636E"/>
<path d="M38.7121 10.9708L40.5398 13.9425L43.9395 14.7657C44.3628 14.8681 44.6231 15.2912 44.5209 15.7193C44.493 15.8402 44.4372 15.9517 44.3534 16.0446L42.0839 18.7049L42.3582 22.2022C42.3907 22.6348 42.0652 23.0161 41.628 23.0486C41.4792 23.0579 41.3396 23.0301 41.2187 22.9697L38.0331 21.6534L34.7917 22.9882C34.3917 23.1556 33.9312 22.9648 33.7638 22.5603C33.7172 22.4486 33.6941 22.3233 33.7033 22.2022L33.9776 18.7049L31.7081 16.0446C31.4245 15.7145 31.4617 15.2169 31.7966 14.9332C31.8988 14.8402 32.0244 14.7844 32.1547 14.7565L35.5218 13.9426L37.3588 10.957C37.5866 10.5849 38.0749 10.4688 38.447 10.7013C38.5586 10.7662 38.647 10.864 38.7121 10.9708Z" fill="#FFC250"/>
<path d="M42.0883 18.7514L42.358 22.2023C42.3905 22.6349 42.065 23.0162 41.6277 23.0487C41.4789 23.058 41.3393 23.0301 41.2184 22.9698L38.0328 21.6535L34.7914 22.9883C34.3914 23.1556 33.9309 22.9648 33.7636 22.5604C33.717 22.4487 33.6938 22.3234 33.703 22.2023L33.9728 18.7514C34.1913 18.942 34.5076 19.0072 34.7914 18.8862L37.4794 17.7795C37.8468 17.6259 38.2143 17.6259 38.5816 17.7795L41.2186 18.8677C41.3395 18.9281 41.4789 18.956 41.6279 18.9466C41.8046 18.9327 41.9626 18.8631 42.0883 18.7514Z" fill="#EBB044"/>
<path fill-rule="evenodd" clip-rule="evenodd" d="M24.3461 5.85506H51.7151C53.3243 5.85506 54.645 4.53895 54.645 2.92983C54.645 1.31611 53.3243 0 51.7151 0H24.3461C22.7369 0 21.4208 1.31627 21.4208 2.92983C21.421 4.53895 22.7371 5.85506 24.3461 5.85506Z" fill="#DD636E"/>
<path d="M66.7135 67.6063C67.3925 67.6017 67.9459 68.1411 67.9551 68.82C67.9644 69.4943 67.4202 70.0525 66.7459 70.0572C66.7272 70.0572 61.0861 70.1315 60.6256 69.9781C59.7606 69.6897 59.5187 69.2062 59.8071 68.3365C59.914 68.0202 60.128 67.7457 60.5929 67.132C61.1836 66.3599 62.2578 64.9554 64.0018 62.4626C64.2855 62.0533 64.5088 61.6812 64.6715 61.3463C65.0528 60.5744 65.2389 59.8304 64.5459 59.1328C64.2483 58.8352 63.8389 58.6537 63.3833 58.6537C62.9833 58.6537 62.6206 58.7933 62.3415 59.0211C62.0531 59.2581 61.8485 59.593 61.774 59.9744C61.6439 60.6394 60.9974 61.072 60.3324 60.9417C59.6673 60.8115 59.2302 60.1697 59.3605 59.5001C59.5465 58.5513 60.0627 57.7191 60.7836 57.1283C61.4951 56.5424 62.4021 56.1936 63.3833 56.1936C64.5181 56.1936 65.5412 56.654 66.2853 57.3936C67.2061 58.3143 67.6898 59.7188 67.3968 61.0023C67.2944 61.4349 67.1271 61.9046 66.8759 62.4209C66.6528 62.8719 66.3689 63.351 66.0109 63.8627C64.7833 65.6206 63.9042 66.8204 63.2857 67.6435C64.8113 67.6297 66.7087 67.6063 66.7135 67.6063Z" fill="#30579D"/>
<path d="M11.0687 70.1038C10.9384 70.7688 10.292 71.2012 9.62691 71.0711C8.95721 70.9409 8.52474 70.2992 8.655 69.6295C8.84105 68.6809 9.35719 67.8485 10.0781 67.2578C10.7896 66.6718 11.6966 66.323 12.6778 66.323C13.808 66.323 14.8357 66.7835 15.5753 67.523C16.3193 68.267 16.7797 69.2901 16.7797 70.4249C16.7797 71.5412 16.3333 72.5549 15.6078 73.2943C16.3333 74.0339 16.7797 75.0477 16.7797 76.1638C16.7797 77.294 16.3193 78.3217 15.5753 79.0611C14.8359 79.8053 13.808 80.2657 12.6778 80.2657C11.6547 80.2657 10.7153 79.8844 9.99441 79.2565C9.26433 78.6242 8.75738 77.736 8.61776 76.7313C8.60382 76.6335 8.59447 76.5359 8.58987 76.4475C8.58052 76.3311 8.57593 76.2383 8.57593 76.164C8.57593 75.4849 9.12931 74.9315 9.80836 74.9315C10.4874 74.9315 11.036 75.4849 11.036 76.164C11.036 76.643 11.2314 77.0801 11.5988 77.4012C11.887 77.6522 12.2637 77.8011 12.6777 77.8011C13.1288 77.8011 13.538 77.6198 13.8358 77.3221C14.1334 77.0245 14.3148 76.6151 14.3148 76.164C14.3148 75.7082 14.1335 75.2989 13.8358 75.0012C13.5288 74.6943 13.1149 74.5222 12.6777 74.5222C11.9986 74.5222 11.4452 73.9734 11.4452 73.2945C11.4452 72.6154 11.9986 72.0621 12.6777 72.0621C13.1288 72.0621 13.538 71.8808 13.8358 71.583C14.1334 71.2852 14.3148 70.8761 14.3148 70.4249C14.3148 69.9693 14.1335 69.5599 13.8358 69.2623C13.5382 68.9647 13.1288 68.7833 12.6777 68.7833C12.2778 68.7833 11.9149 68.9229 11.6359 69.1506C11.3476 69.3877 11.143 69.7176 11.0687 70.1038Z" fill="#30579D"/>
</svg>
